<?xml version="1.0" standalone="no"?>
<!DOCTYPE svg PUBLIC "-//W3C//DTD SVG 1.1//EN" "http://www.w3.org/Graphics/SVG/1.1/DTD/svg11.dtd" >
<svg>
<metadata>
Created by FontForge 20120731 at Sat Jun 29 14:42:17 2019
 By www
Copyright (c) 2014 by B\u0142 a\u017C ej Ostoja Lniski. All rights reserved.
</metadata>
<defs>
<font id="CervoW01-Light" horiz-adv-x="178" >
  <font-face 
    font-family="CervoW01-Light"
    font-weight="400"
    font-stretch="normal"
    units-per-em="1000"
    panose-1="1 0 0 0 0 0 0 0 0 0"
    ascent="800"
    descent="-200"
    x-height="500"
    cap-height="700"
    bbox="-6.90909 -293 736 898"
    underline-thickness="50"
    underline-position="-125"
    unicode-range="U+0020-2122"
  />
<missing-glyph horiz-adv-x="464" 
d="M30 703h404v-995h-404v995z" />
    <glyph glyph-name=".notdef" horiz-adv-x="464" 
d="M30 703h404v-995h-404v995z" />
    <glyph glyph-name=".null" horiz-adv-x="0" 
 />
    <glyph glyph-name="nonmarkingreturn" horiz-adv-x="333" 
 />
    <glyph glyph-name="space" unicode=" " horiz-adv-x="220" 
 />
    <glyph glyph-name="exclam" unicode="!" horiz-adv-x="188" 
d="M84 157q-20 0 -20 20l-5 503q0 20 20 20h28q20 0 20 -20l-5 -503q0 -20 -20 -20h-18zM55 39q0 16 11.5 27.5t27.5 11.5q17 0 28 -11.5t11 -27.5q0 -17 -11 -28t-28 -11q-16 0 -27.5 11t-11.5 28z" />
    <glyph glyph-name="quotedbl" unicode="&#x22;" horiz-adv-x="227" 
d="M85 742q19 0 16 -21l-22 -142q-2 -8 -6 -11t-9 -3q-13 0 -16 14l-22 142q-3 21 16 21h43zM185 742q19 0 16 -21l-22 -142q-2 -8 -6 -11t-9 -3q-13 0 -16 14l-22 142q-3 21 16 21h43z" />
    <glyph glyph-name="numbersign" unicode="#" horiz-adv-x="617" 
d="M92 427q-20 0 -20 20v28q0 20 20 20h115l23 185q2 11 6.5 15.5t15.5 4.5h28q21 0 18 -20l-23 -185h108l23 185q2 11 6.5 15.5t15.5 4.5h28q21 0 18 -20l-23 -185h101q20 0 20 -20v-28q0 -20 -20 -20h-109l-14 -116h96q20 0 20 -20v-28q0 -20 -20 -20h-105l-27 -223
q-3 -20 -23 -20h-28q-20 0 -17 20l27 223h-108l-27 -223q-3 -20 -23 -20h-28q-20 0 -17 20l27 223h-111q-20 0 -20 20v28q0 20 20 20h120l14 116h-107zM253 311h108l14 116h-108z" />
    <glyph glyph-name="dollar" unicode="$" horiz-adv-x="382" 
d="M31 145q-1 11 1 19t16 8h31q10 0 15 -4.5t5 -18.5q2 -34 26.5 -61.5t65.5 -27.5q25 0 44 10.5t31 26.5t16.5 36t2.5 40q-4 33 -22.5 62t-44 57t-55 55.5t-55 58t-43 65t-19.5 75.5q-2 28 5 54t21.5 46t35.5 34t47 20v38q0 20 20 20h28q20 0 20 -20v-38q42 -11 72.5 -46
t33.5 -91q-1 -9 -5.5 -11.5t-15.5 -2.5h-22q-10 0 -14.5 2.5t-5.5 11.5q-3 33 -23.5 55t-53.5 22q-17 0 -32 -7t-26 -19.5t-16.5 -31t-2.5 -42.5q4 -31 21.5 -58t42.5 -54t53.5 -54t53.5 -57t43.5 -64.5t23.5 -75.5q3 -30 -4.5 -59t-24 -53t-41 -41.5t-55.5 -23.5v-38
q0 -20 -20 -20h-28q-20 0 -20 20v38q-53 11 -87.5 51t-38.5 94z" />
    <glyph glyph-name="percent" unicode="%" horiz-adv-x="463" 
d="M118 535q-35 0 -59 24t-24 59q0 18 6.5 33t17.5 26.5t26.5 18t32.5 6.5q35 0 59.5 -24.5t24.5 -59.5q0 -17 -6.5 -32.5t-18 -26.5t-26.5 -17.5t-33 -6.5zM82 618q0 -15 10.5 -25.5t25.5 -10.5q16 0 26.5 10.5t10.5 25.5q0 16 -10.5 26.5t-26.5 10.5q-15 0 -25.5 -10.5
t-10.5 -26.5zM260 678q4 22 25 22h26q20 0 17 -20l-122 -658q-4 -22 -24 -22h-26q-21 0 -18 20zM345 -4q-18 0 -33 6.5t-26.5 17.5t-18 26.5t-6.5 32.5q0 35 24.5 59.5t59.5 24.5q17 0 32 -6.5t26.5 -18t18 -26.5t6.5 -33q0 -35 -24 -59t-59 -24zM381 79q0 16 -10.5 26.5
t-25.5 10.5q-16 0 -26.5 -10.5t-10.5 -26.5q0 -15 10.5 -25.5t26.5 -10.5q15 0 25.5 10.5t10.5 25.5z" />
    <glyph glyph-name="ampersand" unicode="&#x26;" horiz-adv-x="403" 
d="M319 151q0 -26 -5.5 -53.5t-20.5 -50t-41 -37t-68 -14.5q-30 0 -55.5 9t-44 29.5t-29 54t-10.5 83.5v82q0 49 11.5 74t25.5 39q2 2 2 3t-2 3q-14 14 -25.5 39t-11.5 74v42q0 50 10.5 83.5t29 54t44 29.5t55.5 9q61 0 93 -32t41 -89q3 -24 0 -30.5t-16 -6.5h-31
q-10 0 -13 3t-5 17q-3 32 -21.5 53t-47.5 21q-28 0 -49.5 -21.5t-21.5 -71.5v-64q0 -30 7 -46.5t17 -24t19.5 -8.5t15.5 -1q20 0 20 -20v-26q0 -21 -20 -20q-7 0 -17 -1.5t-19.5 -9t-16 -23.5t-6.5 -46v-104q0 -50 21.5 -71.5t49.5 -21.5q32 0 50.5 24.5t18.5 60.5v147
q0 20 20 20h90q20 0 20 -20v-18q0 -20 -20 -20h-34q-10 0 -10 -11v-92v0z" />
    <glyph glyph-name="quotesingle" unicode="'" horiz-adv-x="127" 
d="M85 742q19 0 16 -21l-22 -142q-2 -8 -6 -11t-9 -3q-13 0 -16 14l-22 142q-3 21 16 21h43z" />
    <glyph glyph-name="parenleft" unicode="(" horiz-adv-x="218" 
d="M103 82q0 -19 2 -38.5t8 -36t18 -26.5t32 -9q20 0 20 -20v-24q0 -20 -20 -20q-35 0 -59.5 11t-39.5 35t-22 62t-7 92v481q0 54 7 92t22 62t39.5 35t59.5 11q20 0 20 -20v-24q0 -20 -20 -20q-20 1 -32 -9t-18 -26.5t-8 -36t-2 -38.5v-533z" />
    <glyph glyph-name="parenright" unicode=")" horiz-adv-x="218" 
d="M115 615q0 19 -2 38.5t-8 36t-18 26.5t-32 9q-20 0 -20 20v24q0 20 20 20q70 0 99 -46t29 -154v-481q0 -108 -29 -154t-99 -46q-20 0 -20 20v24q0 20 20 20q20 -1 32 9t18 26.5t8 36t2 38.5v533z" />
    <glyph glyph-name="asterisk" unicode="*" horiz-adv-x="325" 
d="M184 669v-56q0 -20 -20 -20h-2q-20 0 -20 20v57l-41 -41q-15 -13 -28 0l-2 2q-8 8 -8 14t8 14l40 40h-56q-20 0 -20 20v2q0 20 20 20h57l-40 40q-8 8 -8 14.5t8 14.5l1 1q8 8 14.5 8t14.5 -8l40 -40v57q0 20 20 20h2q20 0 20 -20v-56l39 39q8 8 14.5 8t14.5 -8l1 -1
q8 -8 8 -14.5t-8 -14.5l-40 -40h57q20 0 20 -20v-2q0 -20 -20 -20h-56l40 -40q8 -8 8 -14t-8 -14l-2 -2q-13 -13 -28 0z" />
    <glyph glyph-name="plus" unicode="+" horiz-adv-x="350" 
d="M209 412q0 -10 10 -10h76q20 0 20 -20v-28q0 -20 -20 -20h-76q-10 0 -10 -10v-85q0 -20 -20 -20h-28q-20 0 -20 20v85q0 10 -10 10h-76q-20 0 -20 20v28q0 20 20 20h76q10 0 10 10v87q0 20 20 20h28q20 0 20 -20v-87v0z" />
    <glyph glyph-name="comma" unicode="," horiz-adv-x="125" 
d="M30 39q0 15 11 27t28 12q15 0 26.5 -10.5t14 -29.5t-8 -45.5t-39.5 -57.5q-2 -2 -4 -3t-6 1l-10 7q-6 5 -2 10q16 23 16.5 33.5t-5.5 17.5t-13.5 14.5t-7.5 23.5z" />
    <glyph glyph-name="hyphen" unicode="-" horiz-adv-x="270" 
d="M35 289q0 20 14 20h171q15 0 15 -20v-28q0 -20 -15 -20h-171q-14 0 -14 20v28v0z" />
    <glyph glyph-name="period" unicode="." horiz-adv-x="128" 
d="M35 39q0 16 11.5 27.5t27.5 11.5q17 0 28 -11.5t11 -27.5q0 -17 -11 -28t-28 -11q-16 0 -27.5 11t-11.5 28z" />
    <glyph glyph-name="slash" unicode="/" horiz-adv-x="221" 
d="M117 678q3 22 23 22h26q21 0 19 -20l-81 -658q-3 -22 -23 -22h-26q-21 0 -19 20z" />
    <glyph glyph-name="zero" unicode="0" horiz-adv-x="400" 
d="M350 166q0 -46 -12 -78.5t-32 -52.5t-47.5 -29.5t-58.5 -9.5t-58.5 9.5t-47.5 29.5t-32 52.5t-12 78.5v368q0 46 12 78.5t32 52.5t47.5 29.5t58.5 9.5t58.5 -9.5t47.5 -29.5t32 -52.5t12 -78.5v-368zM282 517q0 68 -20 95.5t-62 27.5t-62 -27.5t-20 -95.5v-334
q0 -68 20 -95.5t62 -27.5t62 27.5t20 95.5v334z" />
    <glyph glyph-name="one" unicode="1" horiz-adv-x="234" 
d="M112 690q1 2 3.5 6t11.5 4h32q20 0 20 -20v-660q0 -20 -20 -20h-28q-20 0 -20 20v470q0 10 -10 10h-47q-8 0 -12 5t1 16l69 169v0z" />
    <glyph glyph-name="two" unicode="2" horiz-adv-x="369" 
d="M119 84q0 -15 2.5 -17.5t17.5 -2.5h160q20 0 20 -20v-24q0 -20 -20 -20h-228q-20 0 -20 20v137q0 33 10 62.5t26 56.5t36 52.5t39 51.5q12 17 27.5 36t28.5 40.5t22 46t9 53.5q-1 15 -3.5 30t-9.5 27t-19.5 19.5t-33.5 7.5q-24 0 -36.5 -11t-18.5 -27t-7.5 -34.5
t-2.5 -34.5q-1 -11 -5 -15.5t-15 -4.5h-28q-20 0 -20 20q0 30 5 60.5t19.5 55t41 40t68.5 15.5t67.5 -14.5t39.5 -37t19.5 -48.5t6.5 -50q1 -33 -8.5 -63.5t-25 -59.5t-36 -56t-39.5 -53q-18 -23 -34 -44.5t-28 -42.5t-19.5 -43.5t-7.5 -47.5v-60z" />
    <glyph glyph-name="three" unicode="3" horiz-adv-x="365" 
d="M315 486q0 -49 -11.5 -74t-25.5 -39q-2 -2 -2 -3t2 -3q14 -14 25.5 -39t11.5 -74v-82q0 -50 -10.5 -83.5t-29 -54t-44 -29.5t-55.5 -9q-61 0 -93 32t-41 89q-3 24 0 30.5t16 6.5h31q10 0 13 -3t5 -17q3 -32 21.5 -53t47.5 -21q28 0 49.5 21.5t21.5 71.5v104q0 30 -7 46
t-17.5 23.5t-22 9t-20.5 1.5h-10q-16 1 -16 20v26q0 20 20 20h6q9 0 20.5 1t22 8.5t17.5 24t7 46.5v64q0 50 -21.5 71.5t-49.5 21.5q-29 0 -47.5 -21t-21.5 -53q-2 -14 -5 -17t-13 -3h-31q-13 0 -16 6.5t0 30.5q9 57 41 89t93 32q30 0 55.5 -9t44 -29.5t29 -54t10.5 -83.5
v-42v0z" />
    <glyph glyph-name="four" unicode="4" horiz-adv-x="374" 
d="M108 316q-5 -10 5 -10h98q10 0 10 10v212q0 4 -3 5t-5 -4zM289 20q0 -20 -20 -20h-28q-20 0 -20 20v214q0 10 -10 10h-161q-20 0 -20 20v14q0 8 1 14t7 18l184 376q7 14 25 14h22q20 0 20 -20v-364q0 -10 10 -10h5q20 0 20 -20v-22q0 -20 -20 -20h-5q-10 0 -10 -10v-214z
" />
    <glyph glyph-name="five" unicode="5" horiz-adv-x="376" 
d="M53 117q-3 24 0 30.5t16 6.5h31q10 0 13 -3t5 -17q3 -32 21.5 -53t47.5 -21q28 0 49.5 21.5t21.5 71.5v194q0 50 -21 71.5t-49 21.5q-26 0 -48 -21.5t-22 -71.5v-23q0 -20 -20 -20h-28q-20 0 -20 20v356q0 20 20 20h236q20 0 20 -20v-24q0 -20 -20 -20h-168
q-13 0 -16.5 -4t-3.5 -16v-154q17 23 38 32.5t42 9.5q27 0 50 -9t40.5 -29.5t27.5 -54t10 -83.5v-156q0 -50 -10.5 -83.5t-29 -54t-44 -29.5t-55.5 -9q-61 0 -93 32t-41 89z" />
    <glyph glyph-name="six" unicode="6" horiz-adv-x="376" 
d="M50 528q0 50 10.5 83.5t29 54t44 29.5t55.5 9q61 0 93 -32t41 -89q3 -24 0 -30.5t-16 -6.5h-31q-10 0 -13 3t-5 17q-3 32 -21.5 53t-47.5 21q-28 0 -49.5 -21.5t-21.5 -71.5v-144q17 23 38 32.5t42 9.5q27 0 50 -9t40.5 -29.5t27.5 -54t10 -83.5v-97q0 -50 -10 -83.5
t-28.5 -54t-44 -29.5t-55.5 -9t-55.5 9t-44 29.5t-28.5 54t-10 83.5v356zM188 60q28 0 49 21.5t21 71.5v135q0 50 -21 71.5t-49 21.5q-26 0 -48 -21.5t-22 -71.5v-135q0 -50 21 -71.5t49 -21.5z" />
    <glyph glyph-name="seven" unicode="7" horiz-adv-x="328" 
d="M208 624q3 12 -8 12h-150q-20 0 -20 20v24q0 20 20 20h208q20 0 20 -20v-29q0 -8 -0.5 -10.5t-2.5 -13.5l-127 -607q-3 -14 -8.5 -17t-13.5 -3h-31q-8 0 -13 4t-2 16z" />
    <glyph glyph-name="eight" unicode="8" horiz-adv-x="368" 
d="M184 -4q-27 0 -51 9t-42.5 29.5t-29.5 54t-11 83.5v41q0 54 12.5 89t33.5 55q-21 20 -33.5 55t-12.5 89v27q0 50 11 83.5t29.5 54t42.5 29.5t51 9t51 -9t42.5 -29.5t29.5 -54t11 -83.5v-27q0 -54 -13 -89t-34 -55q21 -20 34 -55t13 -89v-41q0 -50 -11 -83.5t-29.5 -54
t-42.5 -29.5t-51 -9zM184 325q-28 0 -47 -21.5t-19 -71.5v-79q0 -50 19 -71.5t47 -21.5t47 21.5t19 71.5v79q0 47 -18 70t-48 23zM250 547q0 50 -19 71.5t-47 21.5t-47 -21.5t-19 -71.5v-65q0 -48 18 -70.5t48 -22.5q28 0 47 21.5t19 71.5v65z" />
    <glyph glyph-name="nine" unicode="9" horiz-adv-x="376" 
d="M258 297q-17 -23 -38 -32.5t-42 -9.5q-27 0 -50 9t-40.5 29.5t-27.5 54t-10 83.5v97q0 50 10 83.5t28.5 54t44 29.5t55.5 9t55.5 -9t44 -29.5t28.5 -54t10 -83.5v-356q0 -50 -10.5 -83.5t-29 -54t-44 -29.5t-55.5 -9q-61 0 -93 32t-41 89q-3 24 0 30.5t16 6.5h31
q10 0 13 -3t5 -17q3 -32 21.5 -53t47.5 -21q28 0 49.5 21.5t21.5 71.5v144zM188 640q-28 0 -49 -21.5t-21 -71.5v-135q0 -50 21 -71.5t49 -21.5q26 0 48 21.5t22 71.5v135q0 50 -21 71.5t-49 21.5z" />
    <glyph glyph-name="colon" unicode=":" horiz-adv-x="128" 
d="M35 341q0 16 11.5 27.5t27.5 11.5q17 0 28 -11.5t11 -27.5q0 -17 -11 -28t-28 -11q-16 0 -27.5 11t-11.5 28zM35 39q0 16 11.5 27.5t27.5 11.5q17 0 28 -11.5t11 -27.5q0 -17 -11 -28t-28 -11q-16 0 -27.5 11t-11.5 28z" />
    <glyph glyph-name="semicolon" unicode=";" horiz-adv-x="125" 
d="M30 39q0 15 11 27t28 12q15 0 26.5 -10.5t14 -29.5t-8 -45.5t-39.5 -57.5q-2 -2 -4 -3t-6 1l-10 7q-6 5 -2 10q16 23 16.5 33.5t-5.5 17.5t-13.5 14.5t-7.5 23.5zM30 341q0 16 11.5 27.5t27.5 11.5q17 0 28 -11.5t11 -27.5q0 -17 -11 -28t-28 -11q-16 0 -27.5 11
t-11.5 28z" />
    <glyph glyph-name="less" unicode="&#x3c;" horiz-adv-x="268" 
d="M222 276q11 -8 11 -20v-51q0 -7 -5 -9t-11 3l-176 138q-6 5 -6 16v32q0 11 6 16l176 138q6 5 11 3t5 -9v-51q0 -12 -11 -20l-109 -86q-9 -6 0 -14z" />
    <glyph glyph-name="equal" unicode="=" horiz-adv-x="370" 
d="M35 450q0 20 20 20h260q20 0 20 -20v-28q0 -20 -20 -20h-260q-20 0 -20 20v28zM35 314q0 20 20 20h260q20 0 20 -20v-28q0 -20 -20 -20h-260q-20 0 -20 20v28z" />
    <glyph glyph-name="greater" unicode="&#x3e;" horiz-adv-x="268" 
d="M155 362q9 8 0 14l-109 86q-11 8 -11 20v51q0 7 5 9t11 -3l176 -138q6 -5 6 -16v-32q0 -11 -6 -16l-176 -138q-6 -5 -11 -3t-5 9v51q0 12 11 20z" />
    <glyph glyph-name="question" unicode="?" horiz-adv-x="339" 
d="M141 192q1 55 14 97t29 80.5t30.5 79t19.5 93.5q3 31 -4 50.5t-18 30t-23.5 14t-19.5 3.5q-8 0 -19 -3t-21.5 -12.5t-17.5 -27.5t-7 -47q0 -20 -20 -20h-28q-11 0 -15 4.5t-5 15.5q-2 39 9 68t30.5 48t44 28.5t49.5 9.5q23 0 47.5 -9t44.5 -28.5t32 -50t10 -73.5
q-2 -54 -18 -94.5t-35 -79t-34.5 -80t-16.5 -97.5v-35q0 -20 -20 -20h-18q-20 0 -20 20v35zM131 39q0 16 11.5 27.5t27.5 11.5q17 0 28 -11.5t11 -27.5q0 -17 -11 -28t-28 -11q-16 0 -27.5 11t-11.5 28z" />
    <glyph glyph-name="at" unicode="@" horiz-adv-x="757" 
d="M45 285q0 119 31 197t79.5 124.5t107.5 65t115 18.5t115.5 -19t108 -65.5t79.5 -125t31 -196.5v-193q0 -48 -13 -80t-33 -50.5t-43.5 -26t-44.5 -7.5q-46 0 -83 29t-46 85q-17 -25 -40.5 -35t-44.5 -10q-27 0 -50 9t-40.5 29.5t-27.5 54t-10 83.5v156q0 50 10 83.5
t27.5 54t40.5 29.5t50 9q21 0 42 -10t38 -33v19q0 20 20 20h28q20 0 20 -20v-383q0 -31 5 -51.5t13.5 -32.5t20.5 -17t27 -5q14 0 26 5t21 17t14 32.5t5 51.5v188q0 58 -12.5 119t-42.5 110.5t-81.5 81t-129.5 31.5t-129 -31.5t-81 -81t-42.5 -110.5t-12.5 -120v-56
q0 -59 12.5 -120t42.5 -110.5t81 -81t129 -31.5q18 0 18 -17v-29q0 -17 -18 -17q-56 0 -115 18.5t-107.5 65t-79.5 124.5t-31 197v58zM444 346q0 51 -22 72.5t-48 21.5q-28 0 -49 -21.5t-21 -71.5v-194q0 -50 21 -71.5t49 -21.5q26 0 48 21.5t22 71.5v193z" />
    <glyph glyph-name="A" unicode="A" horiz-adv-x="402" 
d="M319 0q-10 0 -15 2t-7 13l-12 69q-3 15 -5.5 17.5t-16.5 2.5h-123q-15 0 -17.5 -2.5t-5.5 -17.5l-12 -69q-2 -11 -7 -13t-15 -2h-30q-8 0 -13.5 2t-3.5 15l125 665q2 11 6 14.5t16 3.5h36q12 0 16 -3.5t6 -14.5l125 -665q2 -13 -3.5 -15t-13.5 -2h-30zM136 188
q-2 -15 0 -17.5t17 -2.5h96q15 0 17 2.5t0 17.5l-61 355q-1 4 -4 4t-4 -4z" />
    <glyph glyph-name="B" unicode="B" horiz-adv-x="400" 
d="M355 170q0 -46 -12 -78.5t-32 -52.5t-47.5 -29.5t-58.5 -9.5h-130q-20 0 -20 20v660q0 20 20 20h130q31 0 58.5 -9.5t47.5 -29.5t32 -52.5t12 -78.5v-23q0 -50 -13 -83t-36 -53q-2 -2 0 -4q23 -20 36 -53t13 -83v-61zM123 84q0 -15 2.5 -17.5t17.5 -2.5h62q40 0 60 26
t22 89v46q-2 61 -22 86.5t-60 25.5h-62q-15 0 -17.5 -2.5t-2.5 -17.5v-233zM123 421q0 -15 2.5 -17.5t17.5 -2.5h62q40 0 60 26t22 89v8q-2 61 -22 86.5t-60 25.5h-62q-15 0 -17.5 -2.5t-2.5 -17.5v-195z" />
    <glyph glyph-name="C" unicode="C" horiz-adv-x="386" 
d="M325 187q21 0 20 -23q0 -46 -12 -78t-32.5 -52t-47.5 -29t-58 -9t-58.5 9.5t-47.5 29.5t-32 52.5t-12 78.5v368q0 46 12 78.5t32 52.5t47.5 29.5t58.5 9.5t58 -9t47.5 -29t32.5 -52t12 -78q1 -23 -20 -23h-28q-20 0 -20 16q-2 62 -22.5 86.5t-59.5 24.5q-42 0 -62 -27.5
t-20 -95.5v-334q0 -68 20 -95.5t62 -27.5q39 0 59.5 24.5t22.5 86.5q0 16 20 16h28z" />
    <glyph glyph-name="D" unicode="D" horiz-adv-x="414" 
d="M369 170q0 -46 -12 -78.5t-32 -52.5t-47.5 -29.5t-58.5 -9.5h-144q-20 0 -20 20v660q0 20 20 20h144q31 0 58.5 -9.5t47.5 -29.5t32 -52.5t12 -78.5v-360zM123 84q0 -15 2.5 -17.5t17.5 -2.5h76q42 0 62 27.5t20 95.5v326q0 68 -20 95.5t-62 27.5h-76q-15 0 -17.5 -2.5
t-2.5 -17.5v-532z" />
    <glyph glyph-name="E" unicode="E" horiz-adv-x="341" 
d="M75 0q-20 0 -20 20v660q0 20 20 20h201q20 0 20 -20v-24q0 -20 -20 -20h-133q-15 0 -17.5 -2.5t-2.5 -17.5v-195q0 -15 2.5 -17.5t17.5 -2.5h133q20 0 20 -20v-24q0 -20 -20 -20h-133q-15 0 -17.5 -2.5t-2.5 -17.5v-233q0 -15 2.5 -17.5t17.5 -2.5h133q20 0 20 -20v-24
q0 -20 -20 -20h-201v0z" />
    <glyph glyph-name="F" unicode="F" horiz-adv-x="331" 
d="M75 0q-20 0 -20 20v660q0 20 20 20h201q20 0 20 -20v-24q0 -20 -20 -20h-133q-15 0 -17.5 -2.5t-2.5 -17.5v-195q0 -15 2.5 -17.5t17.5 -2.5h102q20 0 20 -20v-24q0 -20 -20 -20h-102q-15 0 -17.5 -2.5t-2.5 -17.5v-297q0 -20 -20 -20h-28v0z" />
    <glyph glyph-name="G" unicode="G" horiz-adv-x="391" 
d="M277 317q0 15 -2.5 17.5t-17.5 2.5h-40q-20 0 -20 20v24q0 20 20 20h108q20 0 20 -20v-215q0 -46 -12 -78.5t-32 -52.5t-47.5 -29.5t-58.5 -9.5t-58.5 9.5t-47.5 29.5t-32 52.5t-12 78.5v368q0 46 12 78.5t32 52.5t47.5 29.5t58.5 9.5t58 -9t47 -29t32 -52t13 -78
q1 -23 -20 -23h-28q-19 0 -20 16q-2 61 -22.5 86t-59.5 25q-42 0 -62 -27.5t-20 -95.5v-334q0 -68 20 -95.5t62 -27.5t62 27.5t20 95.5v134v0z" />
    <glyph glyph-name="H" unicode="H" horiz-adv-x="410" 
d="M287 317q0 15 -2.5 17.5t-17.5 2.5h-124q-15 0 -17.5 -2.5t-2.5 -17.5v-297q0 -20 -20 -20h-28q-20 0 -20 20v660q0 20 20 20h28q20 0 20 -20v-259q0 -15 2.5 -17.5t17.5 -2.5h124q15 0 17.5 2.5t2.5 17.5v259q0 20 20 20h28q20 0 20 -20v-660q0 -20 -20 -20h-28
q-20 0 -20 20v297v0z" />
    <glyph glyph-name="I" unicode="I" 
d="M123 20q0 -20 -20 -20h-28q-20 0 -20 20v660q0 20 20 20h28q20 0 20 -20v-660v0z" />
    <glyph glyph-name="J" unicode="J" horiz-adv-x="222" 
d="M40 64q24 1 37 9t19 21.5t7 32t1 41.5v512q0 20 20 20h28q20 0 20 -20v-481q0 -36 -2 -72t-14.5 -64t-39.5 -45.5t-76 -17.5q-20 0 -20 20v24q0 11 4.5 15t15.5 5z" />
    <glyph glyph-name="K" unicode="K" horiz-adv-x="389" 
d="M123 20q0 -20 -20 -20h-28q-20 0 -20 20v660q0 20 20 20h28q20 0 20 -20v-310q0 -3 3 -4t5 4l168 315q6 11 9 13t13 2h34q6 0 11 -3.5t-2 -17.5l-126 -239q-5 -8 -4.5 -12.5t2.5 -11.5q7 -21 16 -49t19.5 -59.5t21.5 -65t22 -65.5l52 -156q4 -12 -1.5 -16.5t-11.5 -4.5
h-31q-10 0 -14 2t-8 13l-110 332q-1 3 -3 3t-4 -3l-57 -111q-3 -6 -3.5 -11.5t-0.5 -10.5v-194v0z" />
    <glyph glyph-name="L" unicode="L" horiz-adv-x="326" 
d="M75 0q-20 0 -20 20v660q0 20 20 20h28q20 0 20 -20v-596q0 -15 2.5 -17.5t17.5 -2.5h143q20 0 20 -20v-24q0 -20 -20 -20h-211v0z" />
    <glyph glyph-name="M" unicode="M" horiz-adv-x="520" 
d="M257 0q-8 0 -13.5 1.5t-8.5 12.5l-106 395q-1 4 -3.5 3.5t-2.5 -3.5v-389q0 -20 -20 -20h-28q-20 0 -20 20v660q0 20 20 20h20q16 0 19 -12l142 -531q1 -4 4 -4t4 4l142 531q3 12 19 12h20q20 0 20 -20v-660q0 -20 -20 -20h-28q-20 0 -20 20v389q0 3 -2.5 3.5t-3.5 -3.5
l-106 -395q-3 -11 -8.5 -12.5t-13.5 -1.5h-6v0z" />
    <glyph glyph-name="N" unicode="N" horiz-adv-x="423" 
d="M328 0q-7 0 -12 2t-8 10l-177 466q-2 5 -5 4.5t-3 -4.5v-458q0 -20 -20 -20h-28q-20 0 -20 20v660q0 20 20 20h20q8 0 12.5 -2.5t7.5 -10.5l177 -466q2 -5 5 -4.5t3 4.5v459q0 20 20 20h28q20 0 20 -20v-660q0 -20 -20 -20h-20z" />
    <glyph glyph-name="O" unicode="O" horiz-adv-x="390" 
d="M345 166q0 -46 -12 -78.5t-32 -52.5t-47.5 -29.5t-58.5 -9.5t-58.5 9.5t-47.5 29.5t-32 52.5t-12 78.5v368q0 46 12 78.5t32 52.5t47.5 29.5t58.5 9.5t58.5 -9.5t47.5 -29.5t32 -52.5t12 -78.5v-368zM277 517q0 68 -20 95.5t-62 27.5t-62 -27.5t-20 -95.5v-334
q0 -68 20 -95.5t62 -27.5t62 27.5t20 95.5v334z" />
    <glyph glyph-name="P" unicode="P" horiz-adv-x="374" 
d="M123 330q0 -15 2.5 -17.5t17.5 -2.5h46q42 0 62 27.5t20 95.5v80q0 68 -20 95.5t-62 27.5h-46q-15 0 -17.5 -2.5t-2.5 -17.5v-286zM123 20q0 -20 -20 -20h-28q-20 0 -20 20v660q0 20 20 20h114q31 0 58.5 -9.5t47.5 -29.5t32 -52.5t12 -78.5v-114q0 -46 -12 -78.5
t-32 -52.5t-47.5 -29.5t-58.5 -9.5h-46q-15 0 -17.5 -2.5t-2.5 -17.5v-206z" />
    <glyph glyph-name="Q" unicode="Q" horiz-adv-x="390" 
d="M345 166q0 -62 -20.5 -99t-53.5 -54l15 -58q3 -11 0 -16.5t-14 -8.5l-27 -6q-20 -5 -24 14l-15 59q-3 0 -6 -0.5t-5 -0.5q-31 0 -58.5 9.5t-47.5 29.5t-32 52.5t-12 78.5v368q0 46 12 78.5t32 52.5t47.5 29.5t58.5 9.5t58.5 -9.5t47.5 -29.5t32 -52.5t12 -78.5v-368z
M277 517q0 68 -20 95.5t-62 27.5t-62 -27.5t-20 -95.5v-334q0 -68 20 -95.5t62 -27.5t62 27.5t20 95.5v334z" />
    <glyph glyph-name="R" unicode="R" horiz-adv-x="384" 
d="M75 0q-20 0 -20 20v660q0 20 20 20h114q31 0 58.5 -9.5t47.5 -29.5t32 -52.5t12 -78.5v-55q0 -57 -17 -92.5t-46 -54.5l62 -311q2 -13 -3.5 -15t-13.5 -2h-29q-10 0 -15 2t-7 13l-55 275q-2 11 -5 13t-14 2h-53q-15 0 -17.5 -2.5t-2.5 -17.5v-265q0 -20 -20 -20h-28z
M123 389q0 -15 2.5 -17.5t17.5 -2.5h46q42 0 62 27.5t20 95.5v21q0 68 -20 95.5t-62 27.5h-46q-15 0 -17.5 -2.5t-2.5 -17.5v-227z" />
    <glyph glyph-name="S" unicode="S" horiz-adv-x="376" 
d="M26 145q-1 11 1 19t16 8h31q10 0 15 -4.5t5 -18.5q2 -34 26.5 -61.5t65.5 -27.5q25 0 44 10.5t31 26.5t16.5 36t2.5 40q-4 33 -22.5 62t-44 57t-55 55.5t-55 58t-43 65t-19.5 75.5q-2 33 8 62t29 50t46 33.5t60 12.5q25 0 49.5 -9.5t44 -27.5t32 -44.5t14.5 -59.5
q-1 -9 -5.5 -11.5t-15.5 -2.5h-22q-10 0 -14.5 2.5t-5.5 11.5q-3 33 -23.5 55t-53.5 22q-17 0 -32 -7t-26 -19.5t-16.5 -31t-2.5 -42.5q4 -31 21.5 -58t42.5 -54t53.5 -54t53.5 -57t43.5 -64.5t23.5 -75.5q4 -34 -6 -66.5t-31 -58t-52 -41t-70 -15.5q-32 0 -60.5 11.5
t-49.5 32t-34.5 47.5t-15.5 58z" />
    <glyph glyph-name="T" unicode="T" horiz-adv-x="340" 
d="M20 680q0 20 20 20h260q20 0 20 -20v-24q0 -20 -20 -20h-76q-15 0 -17.5 -2.5t-2.5 -17.5v-596q0 -20 -20 -20h-28q-20 0 -20 20v596q0 15 -2.5 17.5t-16.5 2.5h-77q-20 0 -20 20v24v0z" />
    <glyph glyph-name="U" unicode="U" horiz-adv-x="400" 
d="M350 166q0 -46 -12 -78.5t-32 -52.5t-47.5 -29.5t-58.5 -9.5t-58.5 9.5t-47.5 29.5t-32 52.5t-12 78.5v514q0 20 20 20h28q20 0 20 -20v-497q0 -68 20 -95.5t62 -27.5t62 27.5t20 95.5v497q0 20 20 20h28q20 0 20 -20v-514v0z" />
    <glyph glyph-name="V" unicode="V" horiz-adv-x="462" 
d="M409 700q8 0 13.5 -2t3.5 -15l-160 -665q-2 -11 -6 -14.5t-16 -3.5h-26q-12 0 -16 3.5t-6 14.5l-160 665q-2 13 3.5 15t13.5 2h30q10 0 15 -2t7 -13l122 -538q1 -4 4 -4t4 4l122 538q2 11 7 13t15 2h30z" />
    <glyph glyph-name="W" unicode="W" horiz-adv-x="639" 
d="M327 700q8 0 12.5 -2.5t6.5 -12.5l94 -479q1 -4 4 -4t4 4l85 479q2 11 7 13t15 2h31q8 0 13.5 -2t3.5 -15l-125 -665q-2 -11 -6 -14.5t-16 -3.5h-20q-12 0 -16 3.5t-6 14.5l-88 457q-1 6 -6 6t-6 -6l-89 -457q-2 -11 -6 -14.5t-16 -3.5h-20q-12 0 -16 3.5t-6 14.5
l-125 665q-2 13 3.5 15t13.5 2h31q10 0 15 -2t7 -13l85 -479q1 -4 4 -4t4 4l94 479q2 10 6.5 12.5t12.5 2.5h15v0z" />
    <glyph glyph-name="X" unicode="X" horiz-adv-x="331" 
d="M22 679q-4 12 0.5 16.5t10.5 4.5h32q10 0 14 -2t8 -13l74 -227q2 -5 4 -5t4 5l75 227q4 11 8 13t14 2h32q6 0 10.5 -4.5t0.5 -16.5l-110 -329l110 -329q4 -12 -0.5 -16.5t-10.5 -4.5h-32q-10 0 -14 2t-8 13l-75 227q-2 5 -4 5t-4 -5l-74 -227q-4 -11 -8 -13t-14 -2h-32
q-6 0 -10.5 4.5t-0.5 16.5l110 329z" />
    <glyph glyph-name="Y" unicode="Y" horiz-adv-x="371" 
d="M171 0q-20 0 -20 20v238l-124 425q-4 13 2.5 15t14.5 2h28q10 0 14.5 -2t7.5 -13l87 -312q1 -4 4 -4t4 4l88 312q3 11 7.5 13t14.5 2h28q8 0 14.5 -2t2.5 -15l-125 -425v-238q0 -20 -20 -20h-28v0z" />
    <glyph glyph-name="Z" unicode="Z" horiz-adv-x="344" 
d="M107 72q-3 -8 5 -8h177q20 0 20 -20v-24q0 -20 -20 -20h-234q-20 0 -20 20v31q0 8 0.5 11t3.5 11l198 555q3 8 -5 8h-177q-20 0 -20 20v24q0 20 20 20h234q20 0 20 -20v-31q0 -8 -0.5 -10.5t-3.5 -11.5z" />
    <glyph glyph-name="bracketleft" unicode="[" horiz-adv-x="222" 
d="M103 -115q0 -15 2.5 -17.5t17.5 -2.5h44q20 0 20 -20v-24q0 -20 -20 -20h-112q-20 0 -20 20v957q0 20 20 20h112q20 0 20 -20v-24q0 -20 -20 -20h-44q-15 0 -17.5 -2.5t-2.5 -17.5v-829v0z" />
    <glyph glyph-name="backslash" unicode="\" horiz-adv-x="221" 
d="M185 20q2 -20 -19 -20h-26q-20 0 -23 22l-81 658q-2 20 19 20h26q20 0 23 -22z" />
    <glyph glyph-name="bracketright" unicode="]" horiz-adv-x="222" 
d="M119 714q0 15 -2.5 17.5t-17.5 2.5h-44q-20 0 -20 20v24q0 20 20 20h112q20 0 20 -20v-957q0 -20 -20 -20h-112q-20 0 -20 20v24q0 20 20 20h44q15 0 17.5 2.5t2.5 17.5v829z" />
    <glyph glyph-name="asciicircum" unicode="^" horiz-adv-x="449" 
d="M263 687q44 -83 71.5 -134.5t44 -81.5t23 -43l8.5 -17q5 -8 3 -14t-10 -6h-42q-10 0 -13.5 3t-7.5 10l-103 196q-5 9 -12 9t-12 -9l-104 -196q-4 -7 -7.5 -10t-13.5 -3h-42q-8 0 -10 6t3 14l147 276q4 7 7.5 10t13.5 3h35q10 0 13.5 -3t7.5 -10z" />
    <glyph glyph-name="underscore" unicode="_" horiz-adv-x="469" 
d="M35 -20q0 20 20 20h359q20 0 20 -20v-28q0 -20 -20 -20h-359q-20 0 -20 20v28v0z" />
    <glyph glyph-name="grave" unicode="`" horiz-adv-x="136" 
d="M81 735q-8 0 -10.5 3t-6.5 14l-30 85q-10 27 13 27h38q11 0 16 -4t5 -17v-98q0 -10 -10 -10h-15z" />
    <glyph glyph-name="a" unicode="a" horiz-adv-x="360" 
d="M254 32q-17 -17 -40.5 -26.5t-47.5 -9.5q-54 0 -89 33t-35 100v31q0 37 13.5 60.5t33.5 38t44.5 23t46.5 17.5t38.5 21t21.5 33q8 35 -9 61t-51 26q-23 0 -43 -18.5t-20 -56.5q0 -14 -4 -17t-14 -3h-28q-11 0 -15 4.5t-5 15.5q-2 27 7 52t26 44.5t41.5 31t54.5 11.5
q21 0 43.5 -8t42 -24.5t32 -43.5t12.5 -64v-285q0 -20 3 -34t5 -25q4 -20 -20 -20h-22q-11 0 -15 5.5t-7 26.5zM184 60q25 2 41.5 17.5t16.5 59.5v128q-26 -11 -50 -19t-42 -19.5t-29 -29.5t-11 -49v-11q0 -39 18 -59.5t56 -17.5z" />
    <glyph glyph-name="b" unicode="b" horiz-adv-x="376" 
d="M123 153q0 -50 22 -71.5t48 -21.5q28 0 49 21.5t21 71.5v194q0 50 -21 71.5t-49 21.5q-26 0 -48 -21.5t-22 -72.5v-193zM55 680q0 20 20 20h28q20 0 20 -20v-219q17 23 38 32.5t42 10.5q27 1 50 -8t40.5 -29.5t27.5 -54.5t10 -84v-156q0 -50 -10 -84t-27.5 -54.5
t-40.5 -29.5t-50 -8q-21 1 -42 10t-38 32v-18q0 -20 -20 -20h-28q-20 0 -20 20v660z" />
    <glyph glyph-name="c" unicode="c" horiz-adv-x="355" 
d="M45 328q0 50 11 83.5t29.5 54t42.5 29.5t51 9q32 0 55.5 -11t39.5 -29t24.5 -41.5t10.5 -48.5q2 -17 -2.5 -23t-17.5 -6h-27q-10 0 -13.5 3t-4.5 17q-3 38 -21 56.5t-44 18.5q-28 0 -47 -21.5t-19 -71.5v-194q0 -50 19 -71.5t47 -21.5q26 0 44 18.5t21 56.5q1 14 4.5 17
t13.5 3h27q13 0 17.5 -6t2.5 -23q-2 -25 -10.5 -48.5t-24.5 -41.5t-39.5 -29t-55.5 -11q-27 0 -51 9t-42.5 29.5t-29.5 54t-11 83.5v156v0z" />
    <glyph glyph-name="d" unicode="d" horiz-adv-x="376" 
d="M253 346q0 51 -22 72.5t-48 21.5q-28 0 -49 -21.5t-21 -71.5v-194q0 -50 21 -71.5t49 -21.5q26 0 48 21.5t22 71.5v193zM321 20q0 -20 -20 -20h-28q-20 0 -20 20v18q-17 -23 -38 -32t-42 -10q-27 -1 -50 8t-40.5 29.5t-27.5 54.5t-10 84v156q0 50 10 84t27.5 54.5
t40.5 29.5t50 8q21 -1 42 -10.5t38 -32.5v219q0 20 20 20h28q20 0 20 -20v-660z" />
    <glyph glyph-name="e" unicode="e" horiz-adv-x="358" 
d="M113 153q0 -50 19 -71.5t47 -21.5q26 0 44 18.5t21 56.5q1 14 4.5 17t13.5 3h27q13 0 17.5 -6t2.5 -23q-2 -25 -10.5 -48.5t-24.5 -41.5t-39.5 -29t-55.5 -11q-27 0 -51 9t-42.5 29.5t-29.5 54t-11 83.5v156q0 50 11 83.5t29.5 54t42.5 29.5t51 9t51 -9t42.5 -29.5
t29.5 -54t11 -83.5v-62q0 -20 -20 -20h-160q-15 0 -17.5 -2.5t-2.5 -16.5v-74zM179 440q-28 0 -47 -21.5t-19 -71.5v-17q0 -15 2.5 -17.5t17.5 -2.5h92q15 0 17.5 2.5t2.5 17.5v17q0 50 -19 71.5t-47 21.5z" />
    <glyph glyph-name="f" unicode="f" horiz-adv-x="212" 
d="M187 636q-24 -2 -37 -9.5t-19 -21t-7 -32t-1 -41.5v-38q0 -10 10 -10h40q20 0 20 -20v-22q0 -20 -20 -20h-40q-10 0 -10 -10v-392q0 -20 -20 -20h-28q-20 0 -20 20v392q0 10 -10 10q-20 0 -20 20v22q0 20 20 20q10 0 10 10v7q0 36 2 72t14.5 64t39 45.5t76.5 17.5
q20 0 20 -20v-24q0 -11 -4.5 -15t-15.5 -5z" />
    <glyph glyph-name="g" unicode="g" horiz-adv-x="376" 
d="M90 -61q10 3 13 0t5 -8q11 -30 31.5 -40t37.5 -10q14 0 27.5 5t24.5 16.5t17.5 29t6.5 42.5v65q-17 -23 -38 -32.5t-42 -10.5q-27 -1 -50 8t-40.5 29.5t-27.5 54.5t-10 84v156q0 50 10 84t27.5 54.5t40.5 29.5t50 8q21 -1 42 -10t38 -32v18q0 20 20 20h28q20 0 20 -20
v-487q0 -50 -12.5 -83.5t-33 -54t-46 -29.5t-52.5 -9q-40 0 -76.5 20t-54.5 71q-2 4 -2 9.5t9 9.5zM253 347q0 50 -22 71.5t-48 21.5q-28 0 -49 -21.5t-21 -71.5v-194q0 -50 21 -71.5t49 -21.5q26 0 48 21.5t22 72.5v193z" />
    <glyph glyph-name="h" unicode="h" horiz-adv-x="381" 
d="M263 347q0 50 -21 71.5t-49 21.5q-26 0 -48 -21.5t-22 -72.5v-326q0 -20 -20 -20h-28q-20 0 -20 20v660q0 20 20 20h28q20 0 20 -20v-219q17 23 38 32.5t42 10.5q27 1 50 -8t40.5 -29.5t27.5 -54.5t10 -84v-308q0 -20 -20 -20h-28q-20 0 -20 20v327v0z" />
    <glyph glyph-name="i" unicode="i" 
d="M123 20q0 -20 -20 -20h-28q-20 0 -20 20v460q0 20 20 20h28q20 0 20 -20v-460zM50 584q0 16 11.5 27.5t27.5 11.5q17 0 28 -11.5t11 -27.5q0 -17 -11 -28t-28 -11q-16 0 -27.5 11t-11.5 28z" />
    <glyph glyph-name="j" unicode="j" 
d="M19 -116q14 1 21.5 8.5t10.5 21t3.5 32.5t0.5 42v492q0 20 20 20h28q20 0 20 -20v-461q0 -41 -1.5 -77t-11.5 -63t-31 -43t-60 -16q-20 0 -20 20v24q0 11 4.5 15t15.5 5zM49 584q0 16 11.5 27.5t27.5 11.5q17 0 28 -11.5t11 -27.5q0 -17 -11 -28t-28 -11q-16 0 -27.5 11
t-11.5 28z" />
    <glyph glyph-name="k" unicode="k" horiz-adv-x="340" 
d="M75 0q-20 0 -20 20v660q0 20 20 20h28q20 0 20 -20v-416l114 216q6 11 11 15.5t16 4.5h34q8 0 12 -4.5t-2 -15.5l-103 -195l117 -265q5 -11 0.5 -15.5t-13.5 -4.5h-33q-11 0 -15.5 4.5t-9.5 15.5l-90 204l-38 -76v-128q0 -20 -20 -20h-28v0z" />
    <glyph glyph-name="l" unicode="l" horiz-adv-x="199" 
d="M154 64q11 -1 15.5 -5t4.5 -15v-24q0 -20 -20 -20q-39 0 -60 16t-31 43t-11.5 63t-1.5 77v481q0 20 20 20h28q20 0 20 -20v-512q0 -46 4.5 -74t31.5 -30z" />
    <glyph glyph-name="m" unicode="m" horiz-adv-x="589" 
d="M471 347q0 50 -21 71.5t-49 21.5q-26 0 -48 -21.5t-22 -72.5v-326q0 -20 -20 -20h-28q-20 0 -20 20v327q0 50 -21 71.5t-49 21.5q-26 0 -48 -21.5t-22 -72.5v-326q0 -20 -20 -20h-28q-20 0 -20 20v460q0 20 20 20h28q20 0 20 -20v-19q17 23 38 32.5t42 10.5
q32 2 58.5 -11.5t43.5 -43.5q12 18 26.5 29t29 17t27.5 7.5t23 1.5q27 0 50 -9t40.5 -29.5t27.5 -54t10 -83.5v-308q0 -20 -20 -20h-28q-20 0 -20 20v327v0z" />
    <glyph glyph-name="n" unicode="n" horiz-adv-x="381" 
d="M263 347q0 50 -21 71.5t-49 21.5q-26 0 -48 -21.5t-22 -72.5v-326q0 -20 -20 -20h-28q-20 0 -20 20v460q0 20 20 20h28q20 0 20 -20v-19q17 23 38 32.5t42 10.5q27 1 50 -8t40.5 -29.5t27.5 -54.5t10 -84v-308q0 -20 -20 -20h-28q-20 0 -20 20v327v0z" />
    <glyph glyph-name="o" unicode="o" horiz-adv-x="358" 
d="M179 -4q-27 0 -51 9t-42.5 29.5t-29.5 54t-11 83.5v156q0 50 11 83.5t29.5 54t42.5 29.5t51 9t51 -9t42.5 -29.5t29.5 -54t11 -83.5v-156q0 -50 -11 -83.5t-29.5 -54t-42.5 -29.5t-51 -9zM245 347q0 50 -19 71.5t-47 21.5t-47 -21.5t-19 -71.5v-194q0 -50 19 -71.5
t47 -21.5t47 21.5t19 71.5v194z" />
    <glyph glyph-name="p" unicode="p" horiz-adv-x="376" 
d="M123 154q0 -51 22 -72.5t48 -21.5q28 0 49 21.5t21 71.5v194q0 50 -21 71.5t-49 21.5q-26 0 -48 -21.5t-22 -71.5v-193zM55 480q0 20 20 20h28q20 0 20 -20v-18q17 23 38 32t42 10q27 1 50 -8t40.5 -29.5t27.5 -54.5t10 -84v-156q0 -50 -10 -84t-27.5 -54.5t-40.5 -29.5
t-50 -8q-21 1 -42 10.5t-38 32.5v-199q0 -20 -20 -20h-28q-20 0 -20 20v640z" />
    <glyph glyph-name="q" unicode="q" horiz-adv-x="376" 
d="M253 347q0 50 -22 71.5t-48 21.5q-28 0 -49 -21.5t-21 -71.5v-194q0 -50 21 -71.5t49 -21.5q26 0 48 21.5t22 72.5v193zM321 -160q0 -20 -20 -20h-28q-20 0 -20 20v199q-17 -23 -38 -32.5t-42 -10.5q-27 -1 -50 8t-40.5 29.5t-27.5 54.5t-10 84v156q0 50 10 84t27.5 54.5
t40.5 29.5t50 8q21 -1 42 -10t38 -32v18q0 20 20 20h28q20 0 20 -20v-640z" />
    <glyph glyph-name="r" unicode="r" horiz-adv-x="237" 
d="M197 428q-5 2 -11 3.5t-13 1.5q-18 0 -28.5 -9t-15 -23.5t-5.5 -32.5t-1 -37v-311q0 -20 -20 -20h-28q-20 0 -20 20v460q0 20 20 20h28q20 0 20 -20v-12q17 17 36.5 24t35.5 8h2q20 0 20 -20v-32q0 -25 -20 -20z" />
    <glyph glyph-name="s" unicode="s" horiz-adv-x="316" 
d="M275 390q0 -13 -4.5 -16.5t-15.5 -3.5h-23q-8 0 -12 2.5t-6 14.5q-2 25 -18.5 39t-36.5 14q-21 0 -37.5 -15.5t-16.5 -39.5q0 -23 14 -41.5t35 -36t45.5 -35.5t45 -39.5t33.5 -48t12 -61.5q-1 -28 -12 -51t-29 -40t-42 -26.5t-50 -9.5q-28 0 -52 10t-41 27.5t-27.5 40.5
t-11.5 50q0 14 4 17t14 3h28q19 0 20 -20q2 -26 20 -45t46 -19q29 0 48.5 19.5t19.5 49.5q0 24 -13.5 43.5t-34 37.5t-44.5 36t-44.5 39t-34 45.5t-13.5 56.5q0 25 9.5 46.5t25.5 37t37 24.5t44 9q22 0 42.5 -7.5t37 -22t26.5 -36t12 -48.5z" />
    <glyph glyph-name="t" unicode="t" horiz-adv-x="204" 
d="M159 64q11 -1 15.5 -5t4.5 -15v-24q0 -20 -20 -20q-39 0 -60 16t-31 43t-11.5 63t-1.5 77v213q0 10 -10 10q-20 0 -20 20v22q0 20 20 20q10 0 10 10v93q0 20 20 20h28q20 0 20 -20v-93q0 -10 10 -10h18q20 0 20 -20v-22q0 -20 -20 -20h-18q-10 0 -10 -10v-244
q0 -46 4.5 -74t31.5 -30z" />
    <glyph glyph-name="u" unicode="u" horiz-adv-x="381" 
d="M178 -4q-27 -1 -50 8t-40.5 29.5t-27.5 54.5t-10 84v308q0 20 20 20h28q20 0 20 -20v-327q0 -50 21 -71.5t49 -21.5q26 0 48 21.5t22 72.5v326q0 20 20 20h28q20 0 20 -20v-460q0 -20 -20 -20h-28q-20 0 -20 20v19q-17 -23 -38 -32.5t-42 -10.5z" />
    <glyph glyph-name="v" unicode="v" horiz-adv-x="354" 
d="M314 500q8 0 14 -2t3 -15l-121 -465q-3 -11 -6.5 -14.5t-15.5 -3.5h-22q-12 0 -15.5 3.5t-6.5 14.5l-121 465q-3 13 3 15t14 2h28q10 0 14.5 -2t7.5 -13l83 -343q1 -4 4 -4t4 4l83 343q3 11 7.5 13t14.5 2h28z" />
    <glyph glyph-name="w" unicode="w" horiz-adv-x="544" 
d="M276 500q10 0 14.5 -2t7.5 -13l83 -322q1 -4 4 -4t4 4l65 322q2 11 7 13t15 2h28q8 0 14 -2t3 -15l-101 -465q-2 -11 -6 -14.5t-16 -3.5h-16q-12 0 -15.5 3.5t-6.5 14.5l-84 325q-1 4 -4 4t-4 -4l-84 -325q-4 -11 -7 -14.5t-15 -3.5h-16q-12 0 -16 3.5t-6 14.5l-101 465
q-3 13 3 15t14 2h28q10 0 15 -2t7 -13l65 -322q1 -4 4 -4t4 4l83 322q3 11 7.5 13t14.5 2h8v0z" />
    <glyph glyph-name="x" unicode="x" horiz-adv-x="315" 
d="M251 0q-12 0 -18 3.5t-11 16.5l-65 150l-64 -150q-5 -13 -11 -16.5t-18 -3.5h-28q-19 0 -11 20l98 230l-98 230q-8 20 12 20h28q14 0 18.5 -4.5t9.5 -15.5l64 -151l65 151q5 11 9.5 15.5t18.5 4.5h28q20 0 12 -20l-99 -230l99 -230q8 -20 -11 -20h-28z" />
    <glyph glyph-name="y" unicode="y" horiz-adv-x="328" 
d="M24 483q-2 11 1 14t16 3h28q10 0 15 -2t7 -13l69 -354q1 -4 4 -4t4 4l69 354q2 11 7 13t15 2h28q13 0 16 -3t1 -14l-119 -555q-12 -57 -33.5 -81.5t-62.5 -26.5q-11 0 -15.5 4t-4.5 16v24q0 11 4.5 15t15.5 5q19 1 30.5 23.5t11.5 52.5q0 10 -0.5 18.5t-4 25.5t-10 48
t-18 86t-30 138.5t-44.5 206.5z" />
    <glyph glyph-name="z" unicode="z" horiz-adv-x="308" 
d="M101 72q-4 -8 5 -8h152q20 0 20 -20v-24q0 -20 -20 -20h-208q-20 0 -20 20v43q0 8 0.5 11.5t3.5 10.5l173 342q4 9 -4 9h-153q-20 0 -20 20v24q0 20 20 20h208q12 0 16 -4.5t4 -15.5v-41q0 -8 -0.5 -12t-3.5 -11z" />
    <glyph glyph-name="braceleft" unicode="{" horiz-adv-x="291" 
d="M176 477q0 -42 -8.5 -64.5t-23.5 -43.5q15 -21 23.5 -43.5t8.5 -63.5v-287q0 -19 2 -38.5t8 -36t18 -26.5t32 -9q20 0 20 -20v-24q0 -20 -20 -20q-35 0 -59.5 11t-39.5 35t-22 62t-7 92v248q0 16 -1 32t-6 28t-16.5 19.5t-33.5 7.5q-16 1 -16 20v26q0 20 20 20
q20 1 31 8.5t15.5 20t5.5 27.5t1 31v149q0 54 7 92t22 62t39.5 35t59.5 11q20 0 20 -20v-24q0 -20 -20 -20q-20 1 -32 -9t-18 -26.5t-8 -36t-2 -38.5v-187v0z" />
    <glyph glyph-name="bar" unicode="|" horiz-adv-x="138" 
d="M55 -293q-8 0 -14 2.5t-6 17.5v1002q0 20 20 20h28q20 0 20 -20v-1002q0 -15 -6 -17.5t-14 -2.5h-28v0z" />
    <glyph glyph-name="braceright" unicode="}" horiz-adv-x="291" 
d="M115 664q0 19 -2 38.5t-8 36t-18 26.5t-32 9q-20 0 -20 20v24q0 20 20 20q70 0 99 -46t29 -154v-149q0 -16 1 -31t5.5 -27.5t15.5 -20t31 -8.5q20 0 20 -20v-26q0 -19 -16 -20q-22 0 -33.5 -7.5t-16.5 -19.5t-6 -28t-1 -32v-248q0 -108 -29 -154t-99 -46q-20 0 -20 20v24
q0 20 20 20q20 -1 32 9t18 26.5t8 36t2 38.5v287q0 41 8.5 63.5t23.5 43.5q-15 21 -23.5 43.5t-8.5 64.5v187z" />
    <glyph glyph-name="asciitilde" unicode="~" horiz-adv-x="517" 
d="M359 307q-25 0 -48.5 7.5t-46.5 16.5t-46.5 17.5t-48.5 10.5q-14 1 -25.5 -3.5t-21 -12t-16.5 -16.5t-11 -16q-4 -6 -7.5 -6t-8.5 3l-36 23q-5 3 -6.5 6t0.5 8q14 35 48 58t73 23q25 0 49 -7.5t47 -16.5t46 -17.5t48 -10.5q14 -1 25.5 3.5t21 12t16 16.5t11.5 16
q4 6 7.5 6t8.5 -3l36 -23q5 -3 6.5 -6t-0.5 -8q-14 -35 -48 -58t-73 -23z" />
    <glyph glyph-name="exclamdown" unicode="&#xa1;" horiz-adv-x="188" 
d="M102 343q20 0 20 -20l5 -503q0 -20 -20 -20h-28q-20 0 -20 20l5 503q0 20 20 20h18zM55 461q0 17 11.5 28t27.5 11q17 0 28 -11t11 -28q0 -16 -11 -27.5t-28 -11.5q-16 0 -27.5 11.5t-11.5 27.5z" />
    <glyph glyph-name="cent" unicode="&#xa2;" horiz-adv-x="353" 
d="M113 153q0 -50 19 -71.5t47 -21.5q23 0 43 18.5t20 56.5q0 14 4 17t14 3h28q13 0 16.5 -6t3.5 -23q0 -44 -26 -79t-69 -47v-38q0 -20 -20 -20h-28q-20 0 -20 20v38q-42 9 -71 49t-29 123v156q0 42 7.5 72t21 50.5t32 32.5t39.5 17v38q0 20 20 20h28q20 0 20 -20v-39
q43 -11 69 -46.5t26 -78.5q0 -17 -3.5 -23t-16.5 -6h-28q-10 0 -14 3t-4 17q0 38 -20 56.5t-43 18.5q-28 0 -47 -21.5t-19 -71.5v-194v0z" />
    <glyph glyph-name="sterling" unicode="&#xa3;" horiz-adv-x="304" 
d="M75 0q-20 0 -20 20v309q0 10 -10 10q-20 0 -20 20v21q0 20 20 20q10 0 10 10v20q0 133 39 195t115 73q15 2 18.5 -1t5.5 -11l5 -31q3 -17 -13 -18q-20 -3 -38 -13.5t-32.5 -33.5t-23 -60.5t-8.5 -93.5v-26q0 -10 10 -10h69q20 0 20 -20v-21q0 -20 -20 -20h-69
q-10 0 -10 -10v-244q0 -16 2.5 -18.5t18.5 -2.5h110q20 0 20 -20v-24q0 -20 -20 -20h-179v0z" />
    <glyph glyph-name="yen" unicode="&#xa5;" horiz-adv-x="322" 
d="M147 0q-8 0 -14 2.5t-6 17.5v57q0 10 -10 10h-25q-20 0 -20 20v24q0 20 20 20h25q10 0 10 10v17q0 10 -10 10h-25q-20 0 -20 20v21q0 20 20 20h25q8 0 9.5 2.5t0.5 6.5l-101 425q-3 13 3 15t14 2h30q10 0 15 -2t7 -13l62 -286q1 -4 4 -4t4 4l62 286q2 11 7 13t15 2h30
q8 0 14 -2t3 -15l-101 -425q-1 -4 0.5 -6.5t9.5 -2.5h25q20 0 20 -20v-21q0 -20 -20 -20h-25q-10 0 -10 -8v-19q0 -10 10 -10h25q20 0 20 -20v-24q0 -20 -20 -20h-25q-10 0 -10 -10v-57q0 -15 -6 -17.5t-14 -2.5h-28v0z" />
    <glyph glyph-name="section" unicode="&#xa7;" horiz-adv-x="336" 
d="M51 387q0 30 13.5 55t36.5 41q-21 21 -35.5 46t-14.5 58q0 25 9.5 46.5t25.5 37t37 24.5t44 9q22 0 42.5 -7.5t37 -22t26.5 -36t12 -48.5q0 -13 -4.5 -16.5t-15.5 -3.5h-23q-8 0 -12 2.5t-6 14.5q-2 25 -18.5 39t-36.5 14q-21 0 -37.5 -15.5t-16.5 -39.5q0 -23 14 -41.5
t35 -36t45.5 -35.5t45 -39.5t33.5 -48t12 -61.5q-1 -29 -12.5 -52.5t-30.5 -40.5q20 -22 32.5 -47.5t10.5 -59.5q-1 -28 -12 -51t-29 -40t-42 -26.5t-50 -9.5q-28 0 -52 10t-41 27.5t-27.5 40.5t-11.5 50q0 14 4 17t14 3h28q19 0 20 -20q2 -26 20 -45t46 -19q29 0 48.5 19.5
t19.5 49.5q0 24 -13.5 43.5t-34 37.5t-44.5 36t-44.5 39t-34 45.5t-13.5 56.5zM115 385q0 -17 8 -31.5t21.5 -27.5t30 -26t34.5 -27q26 19 26 56q0 16 -6.5 30.5t-17.5 27.5t-26 25.5t-31 25.5q-16 -5 -27.5 -19t-11.5 -34z" />
    <glyph glyph-name="dieresis" unicode="&#xa8;" horiz-adv-x="263" 
d="M37 770q0 16 11 27.5t28 11.5q16 0 27.5 -11.5t11.5 -27.5q0 -17 -11.5 -28t-27.5 -11q-17 0 -28 11t-11 28zM148 770q0 16 11.5 27.5t27.5 11.5q17 0 28 -11.5t11 -27.5q0 -17 -11 -28t-28 -11q-16 0 -27.5 11t-11.5 28z" />
    <glyph glyph-name="copyright" unicode="&#xa9;" horiz-adv-x="771" 
d="M35 350q0 73 27.5 137t75.5 111.5t112 75t136 27.5t136 -27.5t111.5 -75t75 -111.5t27.5 -137t-27.5 -136.5t-75 -111t-111.5 -75t-136 -27.5t-136 27.5t-112 75t-75.5 111t-27.5 136.5zM101 350q0 -59 23 -111t62 -90.5t91.5 -61t112.5 -22.5q58 0 110 22.5t91 61
t61.5 90.5t22.5 111q0 60 -22.5 112.5t-61.5 92t-91 62t-110 22.5q-60 0 -112.5 -22.5t-91.5 -62t-62 -92t-23 -112.5zM387 97q-27 0 -51 9t-42.5 29.5t-29.5 54t-11 83.5v156q0 50 11 83.5t29.5 54t42.5 29.5t51 9q28 0 52 -11t41 -29t26.5 -41.5t9.5 -48.5q0 -17 -3.5 -23
t-16.5 -6h-38q-10 0 -14 3t-4 17q0 35 -15 52.5t-38 17.5q-28 0 -42 -21t-14 -67v-194q0 -46 14 -67t42 -21q23 0 38 19t15 51q0 14 4 17t14 3h38q13 0 16.5 -6t3.5 -23q0 -26 -9.5 -49.5t-26.5 -41.5t-41 -28.5t-52 -10.5z" />
    <glyph glyph-name="ordfeminine" unicode="&#xaa;" horiz-adv-x="227" 
d="M155 434q-10 -9 -23 -14.5t-27 -5.5q-31 0 -50.5 18.5t-19.5 56.5v18q0 31 16 45.5t36 23t38 15.5t22 25q5 20 -5 34.5t-29 14.5q-13 0 -24.5 -10.5t-11.5 -31.5q0 -8 -2.5 -10t-7.5 -2h-16q-11 0 -11 12q-2 30 18.5 54t54.5 24q12 0 25 -4.5t24 -14t18 -24.5t7 -36v-161
q0 -11 1 -19.5t3 -14.5q3 -11 -11 -11h-13q-6 0 -8 3t-4 15zM115 450q15 2 24 10.5t9 33.5v72q-15 -6 -28.5 -10.5t-24 -11t-16.5 -16.5t-6 -28v-6q0 -47 42 -44z" />
    <glyph glyph-name="guillemotleft" unicode="&#xab;" horiz-adv-x="360" 
d="M39 239q-8 12 0 22l123 150q7 8 12.5 5t5.5 -10v-60q0 -7 -1 -10.5t-9 -12.5l-54 -67q-5 -6 0 -12l54 -67q8 -9 9 -12.5t1 -10.5v-60q0 -7 -5.5 -10t-12.5 5zM184 239q-8 12 0 22l123 150q7 8 12.5 5t5.5 -10v-60q0 -7 -1 -10.5t-9 -12.5l-54 -67q-5 -6 0 -12l54 -67
q8 -9 9 -12.5t1 -10.5v-60q0 -7 -5.5 -10t-12.5 5z" />
    <glyph glyph-name="uni00AD" unicode="&#xad;" horiz-adv-x="499" 
d="M35 289q0 20 20 20h389q20 0 20 -20v-28q0 -20 -20 -20h-389q-20 0 -20 20v28v0z" />
    <glyph glyph-name="registered" unicode="&#xae;" horiz-adv-x="771" 
d="M35 350q0 73 27.5 137t75.5 111.5t112 75t136 27.5t136 -27.5t111.5 -75t75 -111.5t27.5 -137t-27.5 -136.5t-75 -111t-111.5 -75t-136 -27.5t-136 27.5t-112 75t-75.5 111t-27.5 136.5zM97 350q0 -59 23 -111t62 -90.5t91.5 -61t112.5 -22.5q58 0 110 22.5t91 61
t61.5 90.5t22.5 111q0 60 -22.5 112.5t-61.5 92t-91 62t-110 22.5q-60 0 -112.5 -22.5t-91.5 -62t-62 -92t-23 -112.5zM311 107q-14 0 -14 13v462q0 14 14 14h80q43 0 73.5 -27.5t30.5 -91.5v-39q0 -38 -12 -63.5t-31 -37.5l43 -219q2 -8 -2.5 -9.5t-10.5 -1.5h-36
q-7 0 -10.5 1t-5.5 9l-37 193q-1 7 -3.5 8t-10.5 1h-5q-10 0 -11.5 -1.5t-1.5 -12.5v-185q0 -13 -15 -13h-35zM361 390q0 -11 1.5 -13t11.5 -2q30 0 43.5 14.5t13.5 60.5v16q0 46 -13.5 60.5t-43.5 14.5q-10 0 -11.5 -2t-1.5 -13v-136z" />
    <glyph glyph-name="macron" unicode="&#xaf;" horiz-adv-x="239" 
d="M20 773q0 20 20 20h159q20 0 20 -20v-18q0 -20 -20 -20h-159q-20 0 -20 20v18v0z" />
    <glyph glyph-name="degree" unicode="&#xb0;" horiz-adv-x="237" 
d="M119 537q-18 0 -33 6.5t-26.5 17.5t-18 26.5t-6.5 32.5q0 35 24.5 59.5t59.5 24.5q17 0 32 -6.5t26.5 -18t18 -26.5t6.5 -33q0 -35 -24 -59t-59 -24zM155 620q0 16 -10.5 26.5t-25.5 10.5q-16 0 -26.5 -10.5t-10.5 -26.5q0 -15 10.5 -25.5t26.5 -10.5q15 0 25.5 10.5
t10.5 25.5z" />
    <glyph glyph-name="uni00B2" unicode="&#xb2;" horiz-adv-x="210" 
d="M78 450q0 -6 1 -7t8 -1h65q8 0 8 -8v-10q0 -8 -8 -8h-93q-8 0 -8 8v56q0 26 14.5 47.5t30.5 42.5l22.5 31.5t12.5 40.5q-1 12 -5.5 23t-21.5 11q-9 0 -14 -4.5t-7.5 -11t-3 -14.5t-1.5 -14q0 -8 -8 -8h-12q-8 0 -8 8q0 12 2 24.5t8 22.5t17 16.5t28 6.5t27.5 -6t16 -15
t8 -20t2.5 -20q2 -27 -13 -50t-31 -44q-15 -20 -26 -36t-11 -37v-24z" />
    <glyph glyph-name="uni00B3" unicode="&#xb3;" horiz-adv-x="201" 
d="M151 613q0 -20 -4.5 -30t-9.5 -16q-1 0 -1 -1l1 -1q5 -6 9.5 -16t4.5 -30v-33q0 -41 -15.5 -56.5t-40.5 -15.5t-37.5 13t-16.5 36q-2 10 -0.5 12.5t6.5 2.5h13q4 0 5 -1t2 -7q2 -13 9 -21.5t19 -8.5q11 0 20 9t9 29v42q0 12 -3 19t-7 10t-8.5 3.5t-8.5 0.5h-4q-7 0 -7 8
v10q0 9 8 9h3q8 0 17.5 4t9.5 28v26q0 20 -9 29t-20 9q-12 0 -19 -8.5t-9 -21.5q-1 -6 -2 -7t-5 -1h-13q-5 0 -6.5 2.5t0.5 12.5q4 23 16.5 36t37.5 13t40.5 -15.5t15.5 -56.5v-17v0z" />
    <glyph glyph-name="acute" unicode="&#xb4;" horiz-adv-x="136" 
d="M40 735q-10 0 -10 10v98q0 13 5 17t16 4h38q23 0 13 -27l-30 -85q-4 -11 -6.5 -14t-10.5 -3h-15v0z" />
    <glyph glyph-name="paragraph" unicode="&#xb6;" horiz-adv-x="620" 
d="M447 -292q-20 0 -20 20v888q0 20 -20 20h-32q-20 0 -20 -20v-888q0 -20 -20 -20h-28q-20 0 -20 20v519q0 12 -0.5 19t-3.5 10t-10 3.5t-19 0.5h-11q-42 0 -80 16t-66.5 44.5t-45 67t-16.5 82.5q0 43 15 81t41 66.5t61.5 45.5t76.5 17h336q20 0 20 -20v-24q0 -20 -20 -20
h-50q-20 0 -20 -20v-888q0 -20 -20 -20h-28v0z" />
    <glyph glyph-name="periodcentered" unicode="&#xb7;" horiz-adv-x="148" 
d="M35 368q0 16 11.5 27.5t27.5 11.5q17 0 28 -11.5t11 -27.5q0 -17 -11 -28t-28 -11q-16 0 -27.5 11t-11.5 28z" />
    <glyph glyph-name="cedilla" unicode="&#xb8;" horiz-adv-x="229" 
d="M32 -112q-8 2 -10 5t0 9l37 120l55 -9l-20 -67q25 9 46.5 4.5t36.5 -17.5t23.5 -32t8.5 -39q-1 -30 -14.5 -52.5t-34.5 -35t-46.5 -13.5t-49.5 11q-7 3 -3 12l12 36q2 6 6 6t7 -1q13 -4 23 -4q17 0 28.5 12t11.5 29q0 15 -11.5 27t-28.5 12q-19 0 -32 -16q-3 -4 -5 -5.5
t-8 0.5z" />
    <glyph glyph-name="uni00B9" unicode="&#xb9;" horiz-adv-x="157" 
d="M69 696q1 1 2 2.5t5 1.5h13q8 0 8 -8v-268q0 -8 -8 -8h-12q-8 0 -8 8v191q0 4 -4 4h-19q-8 0 -5 8l28 69v0z" />
    <glyph glyph-name="ordmasculine" unicode="&#xba;" horiz-adv-x="222" 
d="M111 414q-31 0 -53.5 21.5t-22.5 78.5v88q0 57 22.5 78.5t53.5 21.5q30 0 53 -21.5t23 -78.5v-88q0 -57 -23 -78.5t-53 -21.5zM148 613q0 29 -10.5 41t-26.5 12t-27 -12t-11 -41v-110q0 -29 11 -41t27 -12t26.5 12t10.5 41v110z" />
    <glyph glyph-name="guillemotright" unicode="&#xbb;" horiz-adv-x="360" 
d="M198 89q-7 -8 -12.5 -5t-5.5 10v60q0 7 1 10.5t9 12.5l54 67q4 6 0 12l-54 67q-8 9 -9 12.5t-1 10.5v60q0 7 5.5 10t12.5 -5l123 -150q8 -10 0 -22zM53 89q-7 -8 -12.5 -5t-5.5 10v60q0 7 1 10.5t9 12.5l54 67q4 6 0 12l-54 67q-8 9 -9 12.5t-1 10.5v60q0 7 5.5 10
t12.5 -5l123 -150q8 -10 0 -22z" />
    <glyph glyph-name="onequarter" unicode="&#xbc;" horiz-adv-x="429" 
d="M262 678q3 14 7 18t12 4h8q17 0 12 -20l-146 -658q-3 -14 -7 -18t-12 -4h-8q-17 0 -12 20zM261 180q-2 -6 3 -6h56q6 0 6 6v121q0 2 -1.5 2.5t-3.5 -1.5zM364 11q0 -11 -11 -11h-16q-11 0 -11 11v122q0 6 -6 6h-92q-11 0 -11 11v8q0 5 0.5 8.5t4.5 10.5l104 214q4 8 14 8
h13q11 0 11 -11v-208q0 -6 6 -6h3q11 0 11 -11v-13q0 -11 -11 -11h-3q-6 0 -6 -6v-122zM86 694q0 1 1.5 3.5t6.5 2.5h19q11 0 11 -11v-377q0 -11 -11 -11h-16q-12 0 -12 11v268q0 6 -5 6h-27q-5 0 -7 3t1 9z" />
    <glyph glyph-name="onehalf" unicode="&#xbd;" horiz-adv-x="453" 
d="M262 678q3 14 7 18t12 4h8q17 0 12 -20l-146 -658q-3 -14 -7 -18t-12 -4h-8q-17 0 -12 20zM86 694q0 1 1.5 3.5t6.5 2.5h19q11 0 11 -11v-377q0 -11 -11 -11h-16q-12 0 -12 11v268q0 6 -5 6h-27q-5 0 -7 3t1 9zM295 48q0 -9 1.5 -10.5t9.5 -1.5h91q11 0 11 -11v-14
q0 -11 -11 -11h-129q-11 0 -11 11v78q0 37 20.5 67t41.5 59q7 10 16 20.5t16.5 23t12.5 26.5t5 30q-1 9 -2.5 17.5t-5.5 15t-11 11t-19 4.5q-13 0 -20 -6t-10.5 -15.5t-4 -20t-1.5 -19.5q-1 -11 -12 -11h-15q-12 0 -12 11q0 17 3 34t11 31t23 23t39 9t38 -8t22 -21t11 -28
t4 -28q1 -19 -4.5 -36t-14.5 -33.5t-20.5 -32t-22.5 -30.5q-20 -26 -35 -48.5t-15 -51.5v-34z" />
    <glyph glyph-name="threequarters" unicode="&#xbe;" horiz-adv-x="484" 
d="M318 678q3 14 7 18t12 4h8q17 0 12 -20l-146 -658q-3 -14 -7 -18t-12 -4h-8q-17 0 -12 20zM202 580q0 -28 -6.5 -42.5t-14.5 -22.5q-1 0 -2 -1q0 -2 2 -2q8 -8 14.5 -22t6.5 -42v-47q0 -57 -22.5 -78.5t-57.5 -21.5t-53 18t-23 51q-2 14 -0.5 17.5t9.5 3.5h18q5 0 7 -2
t3 -10q2 -18 12 -30t27 -12q16 0 28.5 12.5t12.5 40.5v59q0 17 -4 26.5t-10 14t-12.5 5t-11.5 0.5h-6q-9 0 -9 11v15q0 11 11 11h4q5 0 11.5 0.5t12.5 5t10 14t4 26.5v36q0 29 -12.5 41t-28.5 12q-17 0 -27 -12t-12 -30q-1 -8 -3 -9.5t-7 -1.5h-18q-8 0 -9.5 3.5t0.5 17.5
q5 32 23 50.5t53 18.5t57.5 -22t22.5 -78v-24zM316 181q-2 -6 3 -6h56q6 0 6 6v121q0 2 -1.5 2.5t-3.5 -1.5zM419 12q0 -11 -11 -11h-16q-11 0 -11 11v122q0 6 -6 6h-92q-11 0 -11 11v8q0 5 0.5 8.5t4.5 10.5l104 214q4 8 14 8h13q11 0 11 -11v-208q0 -6 6 -6h3q11 0 11 -11
v-13q0 -11 -11 -11h-3q-6 0 -6 -6v-122z" />
    <glyph glyph-name="questiondown" unicode="&#xbf;" horiz-adv-x="339" 
d="M198 307q-1 -55 -14 -97t-29 -80.5t-31 -79t-19 -93.5q-3 -32 4 -51t18 -29.5t23 -14t20 -3.5t19 3t21.5 12.5t17.5 27.5t7 47q0 20 20 20h28q11 0 15 -4.5t5 -15.5q2 -39 -9 -68t-30.5 -48t-44 -28.5t-49.5 -9.5q-23 0 -47.5 9t-44.5 28.5t-32 50t-10 73.5q2 54 18 94.5
t35 79t34.5 80t16.5 97.5v35q0 20 20 20h18q20 0 20 -20v-35zM208 460q0 -16 -11.5 -27.5t-27.5 -11.5q-17 0 -28 11.5t-11 27.5q0 17 11 28t28 11q16 0 27.5 -11t11.5 -28z" />
    <glyph glyph-name="Agrave" unicode="&#xc0;" horiz-adv-x="402" 
d="M319 0q-10 0 -15 2t-7 13l-12 69q-3 15 -5.5 17.5t-16.5 2.5h-123q-15 0 -17.5 -2.5t-5.5 -17.5l-12 -69q-2 -11 -7 -13t-15 -2h-30q-8 0 -13.5 2t-3.5 15l125 665q2 11 6 14.5t16 3.5h36q12 0 16 -3.5t6 -14.5l125 -665q2 -13 -3.5 -15t-13.5 -2h-30zM136 188
q-2 -15 0 -17.5t17 -2.5h96q15 0 17 2.5t0 17.5l-61 355q-1 4 -4 4t-4 -4zM193 735q-8 0 -10.5 3t-6.5 14l-30 85q-10 27 13 27h38q11 0 16 -4t5 -17v-98q0 -10 -10 -10h-15z" />
    <glyph glyph-name="Aacute" unicode="&#xc1;" horiz-adv-x="402" 
d="M319 0q-10 0 -15 2t-7 13l-12 69q-3 15 -5.5 17.5t-16.5 2.5h-123q-15 0 -17.5 -2.5t-5.5 -17.5l-12 -69q-2 -11 -7 -13t-15 -2h-30q-8 0 -13.5 2t-3.5 15l125 665q2 11 6 14.5t16 3.5h36q12 0 16 -3.5t6 -14.5l125 -665q2 -13 -3.5 -15t-13.5 -2h-30zM136 188
q-2 -15 0 -17.5t17 -2.5h96q15 0 17 2.5t0 17.5l-61 355q-1 4 -4 4t-4 -4zM193 735q-10 0 -10 10v98q0 13 5 17t16 4h38q23 0 13 -27l-30 -85q-4 -11 -6.5 -14t-10.5 -3h-15z" />
    <glyph glyph-name="Acircumflex" unicode="&#xc2;" horiz-adv-x="402" 
d="M319 0q-10 0 -15 2t-7 13l-12 69q-3 15 -5.5 17.5t-16.5 2.5h-123q-15 0 -17.5 -2.5t-5.5 -17.5l-12 -69q-2 -11 -7 -13t-15 -2h-30q-8 0 -13.5 2t-3.5 15l125 665q2 11 6 14.5t16 3.5h36q12 0 16 -3.5t6 -14.5l125 -665q2 -13 -3.5 -15t-13.5 -2h-30zM136 188
q-2 -15 0 -17.5t17 -2.5h96q15 0 17 2.5t0 17.5l-61 355q-1 4 -4 4t-4 -4zM205 813q-4 10 -8 0l-24 -67q-2 -5 -4.5 -8t-8.5 -3h-43q-10 0 -11.5 6t2.5 12l64 104q4 5 7 6t8 1h28q5 0 8 -1t7 -6l64 -104q4 -6 2.5 -12t-11.5 -6h-43q-6 0 -8.5 3t-4.5 8z" />
    <glyph glyph-name="Atilde" unicode="&#xc3;" horiz-adv-x="402" 
d="M319 0q-10 0 -15 2t-7 13l-12 69q-3 15 -5.5 17.5t-16.5 2.5h-123q-15 0 -17.5 -2.5t-5.5 -17.5l-12 -69q-2 -11 -7 -13t-15 -2h-30q-8 0 -13.5 2t-3.5 15l125 665q2 11 6 14.5t16 3.5h36q12 0 16 -3.5t6 -14.5l125 -665q2 -13 -3.5 -15t-13.5 -2h-30zM136 188
q-2 -15 0 -17.5t17 -2.5h96q15 0 17 2.5t0 17.5l-61 355q-1 4 -4 4t-4 -4zM239 731q-11 1 -22.5 6.5t-22 11.5t-20 10.5t-16.5 4.5q-12 0 -17.5 -7.5t-8.5 -18.5q-1 -2 -2 -4.5t-6 -2.5h-40q-7 0 -6 6q3 16 9 30.5t16.5 25t25.5 16t35 4.5q11 -1 22.5 -6t22 -11t19.5 -11
t17 -5q12 0 17.5 7.5t8.5 18.5q1 2 2 4.5t6 2.5h40q7 0 6 -6q-3 -16 -9 -30.5t-16.5 -25t-25.5 -16.5t-35 -4z" />
    <glyph glyph-name="Adieresis" unicode="&#xc4;" horiz-adv-x="402" 
d="M319 0q-10 0 -15 2t-7 13l-12 69q-3 15 -5.5 17.5t-16.5 2.5h-123q-15 0 -17.5 -2.5t-5.5 -17.5l-12 -69q-2 -11 -7 -13t-15 -2h-30q-8 0 -13.5 2t-3.5 15l125 665q2 11 6 14.5t16 3.5h36q12 0 16 -3.5t6 -14.5l125 -665q2 -13 -3.5 -15t-13.5 -2h-30zM136 188
q-2 -15 0 -17.5t17 -2.5h96q15 0 17 2.5t0 17.5l-61 355q-1 4 -4 4t-4 -4zM107 770q0 16 11 27.5t28 11.5q16 0 27.5 -11.5t11.5 -27.5q0 -17 -11.5 -28t-27.5 -11q-17 0 -28 11t-11 28zM218 770q0 16 11.5 27.5t27.5 11.5q17 0 28 -11.5t11 -27.5q0 -17 -11 -28t-28 -11
q-16 0 -27.5 11t-11.5 28z" />
    <glyph glyph-name="Aring" unicode="&#xc5;" horiz-adv-x="402" 
d="M319 0q-10 0 -15 2t-7 13l-12 69q-3 15 -5.5 17.5t-16.5 2.5h-123q-15 0 -17.5 -2.5t-5.5 -17.5l-12 -69q-2 -11 -7 -13t-15 -2h-30q-8 0 -13.5 2t-3.5 15l125 665q2 11 6 14.5t16 3.5h36q12 0 16 -3.5t6 -14.5l125 -665q2 -13 -3.5 -15t-13.5 -2h-30zM136 188
q-2 -15 0 -17.5t17 -2.5h96q15 0 17 2.5t0 17.5l-61 355q-1 4 -4 4t-4 -4zM201 731q-34 0 -58.5 24.5t-24.5 58.5q0 35 24.5 59.5t58.5 24.5q35 0 59.5 -24.5t24.5 -59.5q0 -34 -24.5 -58.5t-59.5 -24.5zM162 814q0 -17 11.5 -28t27.5 -11q17 0 28 11t11 28q0 16 -11 27.5
t-28 11.5q-16 0 -27.5 -11.5t-11.5 -27.5z" />
    <glyph glyph-name="AE" unicode="&#xc6;" horiz-adv-x="491" 
d="M225 0q-20 0 -20 20v64q0 15 -2.5 17.5t-17.5 2.5h-45q-15 0 -17.5 -2.5t-5.5 -17.5l-12 -69q-2 -11 -7 -13t-15 -2h-30q-8 0 -13.5 2t-3.5 15l125 665q2 11 6 14.5t16 3.5h243q20 0 20 -20v-24q0 -20 -20 -20h-133q-15 0 -17.5 -2.5t-2.5 -17.5v-195q0 -15 2.5 -17.5
t17.5 -2.5h133q20 0 20 -20v-24q0 -20 -20 -20h-133q-15 0 -17.5 -2.5t-2.5 -17.5v-233q0 -15 2.5 -17.5t17.5 -2.5h133q20 0 20 -20v-24q0 -20 -20 -20h-201zM136 188q-2 -15 0 -17.5t17 -2.5h32q15 0 17.5 2.5t2.5 17.5v355q-1 4 -4 4t-4 -4z" />
    <glyph glyph-name="Ccedilla" unicode="&#xc7;" horiz-adv-x="386" 
d="M124 -112q-8 2 -10 5t0 9l31 100q-45 13 -72.5 52t-27.5 112v368q0 46 12 78.5t32 52.5t47.5 29.5t58.5 9.5t58 -9t47.5 -29t32.5 -52t12 -78q1 -23 -20 -23h-28q-20 0 -20 16q-2 62 -22.5 86.5t-59.5 24.5q-42 0 -62 -27.5t-20 -95.5v-334q0 -68 20 -95.5t62 -27.5
q39 0 59.5 24.5t22.5 86.5q0 16 20 16h28q21 0 20 -23q0 -45 -11.5 -76.5t-31 -51.5t-45.5 -29.5t-56 -10.5l-15 -50q25 9 46.5 4.5t36.5 -17.5t23.5 -32t8.5 -39q-1 -30 -14.5 -52.5t-34.5 -35t-46.5 -13.5t-49.5 11q-7 3 -3 12l12 36q2 6 6 6t7 -1q13 -4 23 -4
q17 0 28.5 12t11.5 29q0 15 -11.5 27t-28.5 12q-19 0 -32 -16q-3 -4 -5 -5.5t-8 0.5z" />
    <glyph glyph-name="Egrave" unicode="&#xc8;" horiz-adv-x="341" 
d="M75 0q-20 0 -20 20v660q0 20 20 20h201q20 0 20 -20v-24q0 -20 -20 -20h-133q-15 0 -17.5 -2.5t-2.5 -17.5v-195q0 -15 2.5 -17.5t17.5 -2.5h133q20 0 20 -20v-24q0 -20 -20 -20h-133q-15 0 -17.5 -2.5t-2.5 -17.5v-233q0 -15 2.5 -17.5t17.5 -2.5h133q20 0 20 -20v-24
q0 -20 -20 -20h-201zM173 735q-8 0 -10.5 3t-6.5 14l-30 85q-10 27 13 27h38q11 0 16 -4t5 -17v-98q0 -10 -10 -10h-15z" />
    <glyph glyph-name="Eacute" unicode="&#xc9;" horiz-adv-x="341" 
d="M75 0q-20 0 -20 20v660q0 20 20 20h201q20 0 20 -20v-24q0 -20 -20 -20h-133q-15 0 -17.5 -2.5t-2.5 -17.5v-195q0 -15 2.5 -17.5t17.5 -2.5h133q20 0 20 -20v-24q0 -20 -20 -20h-133q-15 0 -17.5 -2.5t-2.5 -17.5v-233q0 -15 2.5 -17.5t17.5 -2.5h133q20 0 20 -20v-24
q0 -20 -20 -20h-201zM171 735q-10 0 -10 10v98q0 13 5 17t16 4h38q23 0 13 -27l-30 -85q-4 -11 -6.5 -14t-10.5 -3h-15z" />
    <glyph glyph-name="Ecircumflex" unicode="&#xca;" horiz-adv-x="341" 
d="M75 0q-20 0 -20 20v660q0 20 20 20h201q20 0 20 -20v-24q0 -20 -20 -20h-133q-15 0 -17.5 -2.5t-2.5 -17.5v-195q0 -15 2.5 -17.5t17.5 -2.5h133q20 0 20 -20v-24q0 -20 -20 -20h-133q-15 0 -17.5 -2.5t-2.5 -17.5v-233q0 -15 2.5 -17.5t17.5 -2.5h133q20 0 20 -20v-24
q0 -20 -20 -20h-201zM180 813q-4 10 -8 0l-24 -67q-2 -5 -4.5 -8t-8.5 -3h-43q-10 0 -11.5 6t2.5 12l64 104q4 5 7 6t8 1h28q5 0 8 -1t7 -6l64 -104q4 -6 2.5 -12t-11.5 -6h-43q-6 0 -8.5 3t-4.5 8z" />
    <glyph glyph-name="Edieresis" unicode="&#xcb;" horiz-adv-x="341" 
d="M75 0q-20 0 -20 20v660q0 20 20 20h201q20 0 20 -20v-24q0 -20 -20 -20h-133q-15 0 -17.5 -2.5t-2.5 -17.5v-195q0 -15 2.5 -17.5t17.5 -2.5h133q20 0 20 -20v-24q0 -20 -20 -20h-133q-15 0 -17.5 -2.5t-2.5 -17.5v-233q0 -15 2.5 -17.5t17.5 -2.5h133q20 0 20 -20v-24
q0 -20 -20 -20h-201zM84 770q0 16 11 27.5t28 11.5q16 0 27.5 -11.5t11.5 -27.5q0 -17 -11.5 -28t-27.5 -11q-17 0 -28 11t-11 28zM195 770q0 16 11.5 27.5t27.5 11.5q17 0 28 -11.5t11 -27.5q0 -17 -11 -28t-28 -11q-16 0 -27.5 11t-11.5 28z" />
    <glyph glyph-name="Igrave" unicode="&#xcc;" 
d="M123 20q0 -20 -20 -20h-28q-20 0 -20 20v660q0 20 20 20h28q20 0 20 -20v-660zM81 735q-8 0 -10.5 3t-6.5 14l-30 85q-10 27 13 27h38q11 0 16 -4t5 -17v-98q0 -10 -10 -10h-15z" />
    <glyph glyph-name="Iacute" unicode="&#xcd;" 
d="M123 20q0 -20 -20 -20h-28q-20 0 -20 20v660q0 20 20 20h28q20 0 20 -20v-660zM82 735q-10 0 -10 10v98q0 13 5 17t16 4h38q23 0 13 -27l-30 -85q-4 -11 -6.5 -14t-10.5 -3h-15z" />
    <glyph glyph-name="Icircumflex" unicode="&#xce;" 
d="M123 20q0 -20 -20 -20h-28q-20 0 -20 20v660q0 20 20 20h28q20 0 20 -20v-660zM93 813q-4 10 -8 0l-24 -67q-2 -5 -4.5 -8t-8.5 -3h-43q-10 0 -11.5 6t2.5 12l64 104q4 5 7 6t8 1h28q5 0 8 -1t7 -6l64 -104q4 -6 2.5 -12t-11.5 -6h-43q-6 0 -8.5 3t-4.5 8z" />
    <glyph glyph-name="Idieresis" unicode="&#xcf;" 
d="M123 20q0 -20 -20 -20h-28q-20 0 -20 20v660q0 20 20 20h28q20 0 20 -20v-660zM-5 770q0 16 11 27.5t28 11.5q16 0 27.5 -11.5t11.5 -27.5q0 -17 -11.5 -28t-27.5 -11q-17 0 -28 11t-11 28zM106 770q0 16 11.5 27.5t27.5 11.5q17 0 28 -11.5t11 -27.5q0 -17 -11 -28
t-28 -11q-16 0 -27.5 11t-11.5 28z" />
    <glyph glyph-name="Eth" unicode="&#xd0;" horiz-adv-x="414" 
d="M369 170q0 -46 -12 -78.5t-32 -52.5t-47.5 -29.5t-58.5 -9.5h-144q-20 0 -20 20v406q0 10 -10 10q-20 0 -20 20v24q0 20 20 20q10 0 10 10v170q0 20 20 20h144q31 0 58.5 -9.5t47.5 -29.5t32 -52.5t12 -78.5v-360zM301 513q0 68 -20 95.5t-62 27.5h-76q-15 0 -17.5 -2.5
t-2.5 -17.5v-106q0 -10 10 -10h26q20 0 20 -20v-24q0 -20 -20 -20h-26q-10 0 -10 -10v-342q0 -15 2.5 -17.5t17.5 -2.5h76q42 0 62 27.5t20 95.5v326z" />
    <glyph glyph-name="Ntilde" unicode="&#xd1;" horiz-adv-x="423" 
d="M328 0q-7 0 -12 2t-8 10l-177 466q-2 5 -5 4.5t-3 -4.5v-458q0 -20 -20 -20h-28q-20 0 -20 20v660q0 20 20 20h20q8 0 12.5 -2.5t7.5 -10.5l177 -466q2 -5 5 -4.5t3 4.5v459q0 20 20 20h28q20 0 20 -20v-660q0 -20 -20 -20h-20zM252 731q-11 1 -22.5 6.5t-22 11.5
t-20 10.5t-16.5 4.5q-12 0 -17.5 -7.5t-8.5 -18.5q-1 -2 -2 -4.5t-6 -2.5h-40q-7 0 -6 6q3 16 9 30.5t16.5 25t25.5 16t35 4.5q11 -1 22.5 -6t22 -11t19.5 -11t17 -5q12 0 17.5 7.5t8.5 18.5q1 2 2 4.5t6 2.5h40q7 0 6 -6q-3 -16 -9 -30.5t-16.5 -25t-25.5 -16.5t-35 -4z
" />
    <glyph glyph-name="Ograve" unicode="&#xd2;" horiz-adv-x="390" 
d="M345 166q0 -46 -12 -78.5t-32 -52.5t-47.5 -29.5t-58.5 -9.5t-58.5 9.5t-47.5 29.5t-32 52.5t-12 78.5v368q0 46 12 78.5t32 52.5t47.5 29.5t58.5 9.5t58.5 -9.5t47.5 -29.5t32 -52.5t12 -78.5v-368zM277 517q0 68 -20 95.5t-62 27.5t-62 -27.5t-20 -95.5v-334
q0 -68 20 -95.5t62 -27.5t62 27.5t20 95.5v334zM188 735q-8 0 -10.5 3t-6.5 14l-30 85q-10 27 13 27h38q11 0 16 -4t5 -17v-98q0 -10 -10 -10h-15z" />
    <glyph glyph-name="Oacute" unicode="&#xd3;" horiz-adv-x="390" 
d="M345 166q0 -46 -12 -78.5t-32 -52.5t-47.5 -29.5t-58.5 -9.5t-58.5 9.5t-47.5 29.5t-32 52.5t-12 78.5v368q0 46 12 78.5t32 52.5t47.5 29.5t58.5 9.5t58.5 -9.5t47.5 -29.5t32 -52.5t12 -78.5v-368zM277 517q0 68 -20 95.5t-62 27.5t-62 -27.5t-20 -95.5v-334
q0 -68 20 -95.5t62 -27.5t62 27.5t20 95.5v334zM188 735q-10 0 -10 10v98q0 13 5 17t16 4h38q23 0 13 -27l-30 -85q-4 -11 -6.5 -14t-10.5 -3h-15z" />
    <glyph glyph-name="Ocircumflex" unicode="&#xd4;" horiz-adv-x="390" 
d="M345 166q0 -46 -12 -78.5t-32 -52.5t-47.5 -29.5t-58.5 -9.5t-58.5 9.5t-47.5 29.5t-32 52.5t-12 78.5v368q0 46 12 78.5t32 52.5t47.5 29.5t58.5 9.5t58.5 -9.5t47.5 -29.5t32 -52.5t12 -78.5v-368zM277 517q0 68 -20 95.5t-62 27.5t-62 -27.5t-20 -95.5v-334
q0 -68 20 -95.5t62 -27.5t62 27.5t20 95.5v334zM202 813q-4 10 -8 0l-24 -67q-2 -5 -4.5 -8t-8.5 -3h-43q-10 0 -11.5 6t2.5 12l64 104q4 5 7 6t8 1h28q5 0 8 -1t7 -6l64 -104q4 -6 2.5 -12t-11.5 -6h-43q-6 0 -8.5 3t-4.5 8z" />
    <glyph glyph-name="Otilde" unicode="&#xd5;" horiz-adv-x="390" 
d="M345 166q0 -46 -12 -78.5t-32 -52.5t-47.5 -29.5t-58.5 -9.5t-58.5 9.5t-47.5 29.5t-32 52.5t-12 78.5v368q0 46 12 78.5t32 52.5t47.5 29.5t58.5 9.5t58.5 -9.5t47.5 -29.5t32 -52.5t12 -78.5v-368zM277 517q0 68 -20 95.5t-62 27.5t-62 -27.5t-20 -95.5v-334
q0 -68 20 -95.5t62 -27.5t62 27.5t20 95.5v334zM232 731q-11 1 -22 6t-21.5 11t-20 10.5t-16.5 4.5q-12 0 -17.5 -7t-8.5 -18q-1 -2 -2 -4.5t-6 -2.5h-39q-7 0 -6 6q6 31 25.5 54.5t59.5 20.5q11 -1 22 -6t21.5 -11t19.5 -11t17 -5q12 0 17.5 7.5t8.5 18.5q1 2 2 4.5t6 2.5
h39q7 0 6 -6q-3 -16 -9 -30.5t-16 -25t-25 -16t-35 -3.5z" />
    <glyph glyph-name="Odieresis" unicode="&#xd6;" horiz-adv-x="390" 
d="M345 166q0 -46 -12 -78.5t-32 -52.5t-47.5 -29.5t-58.5 -9.5t-58.5 9.5t-47.5 29.5t-32 52.5t-12 78.5v368q0 46 12 78.5t32 52.5t47.5 29.5t58.5 9.5t58.5 -9.5t47.5 -29.5t32 -52.5t12 -78.5v-368zM277 517q0 68 -20 95.5t-62 27.5t-62 -27.5t-20 -95.5v-334
q0 -68 20 -95.5t62 -27.5t62 27.5t20 95.5v334zM100 770q0 16 11 27.5t28 11.5q16 0 27.5 -11.5t11.5 -27.5q0 -17 -11.5 -28t-27.5 -11q-17 0 -28 11t-11 28zM211 770q0 16 11.5 27.5t27.5 11.5q17 0 28 -11.5t11 -27.5q0 -17 -11 -28t-28 -11q-16 0 -27.5 11t-11.5 28z
" />
    <glyph glyph-name="multiply" unicode="&#xd7;" horiz-adv-x="375" 
d="M243 376q-7 -7 0 -14l87 -88q15 -13 0 -28l-19 -20q-8 -8 -14.5 -8t-14.5 8l-87 88q-8 7 -15 0l-88 -89q-15 -13 -28 0l-20 20q-8 8 -8 14.5t8 14.5l88 88q7 7 0 14l-87 88q-15 13 0 28l20 20q8 8 14 8t14 -8l87 -88q7 -8 15 0l88 89q8 8 14 8t14 -8l20 -20q8 -8 8 -14.5
t-8 -14.5l-88 -88v0z" />
    <glyph glyph-name="Oslash" unicode="&#xd8;" horiz-adv-x="390" 
d="M345 166q0 -46 -12 -78.5t-32 -52.5t-47.5 -29.5t-58.5 -9.5h-1l-7 -52q-3 -20 -23 -20h-27q-20 0 -17 20l9 64q-38 16 -61 54t-23 104v368q0 46 12 78.5t32 52.5t47.5 29.5t58.5 9.5l7 52q3 20 23 20h28q20 0 17 -20l-10 -64q38 -16 61.5 -54t23.5 -104v-368zM277 517
q0 68 -20 95.5t-62 27.5t-62 -27.5t-20 -95.5v-334q0 -68 20 -95.5t62 -27.5t62 27.5t20 95.5v334z" />
    <glyph glyph-name="Ugrave" unicode="&#xd9;" horiz-adv-x="400" 
d="M350 166q0 -46 -12 -78.5t-32 -52.5t-47.5 -29.5t-58.5 -9.5t-58.5 9.5t-47.5 29.5t-32 52.5t-12 78.5v514q0 20 20 20h28q20 0 20 -20v-497q0 -68 20 -95.5t62 -27.5t62 27.5t20 95.5v497q0 20 20 20h28q20 0 20 -20v-514zM193 735q-8 0 -10.5 3t-6.5 14l-30 85
q-10 27 13 27h38q11 0 16 -4t5 -17v-98q0 -10 -10 -10h-15z" />
    <glyph glyph-name="Uacute" unicode="&#xda;" horiz-adv-x="400" 
d="M350 166q0 -46 -12 -78.5t-32 -52.5t-47.5 -29.5t-58.5 -9.5t-58.5 9.5t-47.5 29.5t-32 52.5t-12 78.5v514q0 20 20 20h28q20 0 20 -20v-497q0 -68 20 -95.5t62 -27.5t62 27.5t20 95.5v497q0 20 20 20h28q20 0 20 -20v-514zM194 735q-10 0 -10 10v98q0 13 5 17t16 4h38
q23 0 13 -27l-30 -85q-4 -11 -6.5 -14t-10.5 -3h-15z" />
    <glyph glyph-name="Ucircumflex" unicode="&#xdb;" horiz-adv-x="400" 
d="M350 166q0 -46 -12 -78.5t-32 -52.5t-47.5 -29.5t-58.5 -9.5t-58.5 9.5t-47.5 29.5t-32 52.5t-12 78.5v514q0 20 20 20h28q20 0 20 -20v-497q0 -68 20 -95.5t62 -27.5t62 27.5t20 95.5v497q0 20 20 20h28q20 0 20 -20v-514zM206 813q-4 10 -8 0l-24 -67q-2 -5 -4.5 -8
t-8.5 -3h-43q-10 0 -11.5 6t2.5 12l64 104q4 5 7 6t8 1h28q5 0 8 -1t7 -6l64 -104q4 -6 2.5 -12t-11.5 -6h-43q-6 0 -8.5 3t-4.5 8z" />
    <glyph glyph-name="Udieresis" unicode="&#xdc;" horiz-adv-x="400" 
d="M350 166q0 -46 -12 -78.5t-32 -52.5t-47.5 -29.5t-58.5 -9.5t-58.5 9.5t-47.5 29.5t-32 52.5t-12 78.5v514q0 20 20 20h28q20 0 20 -20v-497q0 -68 20 -95.5t62 -27.5t62 27.5t20 95.5v497q0 20 20 20h28q20 0 20 -20v-514zM108 770q0 16 11 27.5t28 11.5
q16 0 27.5 -11.5t11.5 -27.5q0 -17 -11.5 -28t-27.5 -11q-17 0 -28 11t-11 28zM219 770q0 16 11.5 27.5t27.5 11.5q17 0 28 -11.5t11 -27.5q0 -17 -11 -28t-28 -11q-16 0 -27.5 11t-11.5 28z" />
    <glyph glyph-name="Yacute" unicode="&#xdd;" horiz-adv-x="371" 
d="M171 0q-20 0 -20 20v238l-124 425q-4 13 2.5 15t14.5 2h28q10 0 14.5 -2t7.5 -13l87 -312q1 -4 4 -4t4 4l88 312q3 11 7.5 13t14.5 2h28q8 0 14.5 -2t2.5 -15l-125 -425v-238q0 -20 -20 -20h-28zM178 735q-10 0 -10 10v98q0 13 5 17t16 4h38q23 0 13 -27l-30 -85
q-4 -11 -6.5 -14t-10.5 -3h-15z" />
    <glyph glyph-name="Thorn" unicode="&#xde;" horiz-adv-x="341" 
d="M75 0q-20 0 -20 20v660q0 20 20 20h28q20 0 20 -20v-91q0 -15 2.5 -17.5t17.5 -2.5h13q31 0 58.5 -9.5t47.5 -29.5t32 -52.5t12 -78.5v-95q0 -46 -12 -78.5t-32 -52.5t-47.5 -29.5t-58.5 -9.5h-13q-15 0 -17.5 -2.5t-2.5 -17.5v-94q0 -20 -20 -20h-28zM123 218
q0 -15 2.5 -17.5t17.5 -2.5h13q42 0 62 27.5t20 95.5v61q0 68 -20 95.5t-62 27.5h-13q-15 0 -17.5 -2.5t-2.5 -17.5v-267z" />
    <glyph glyph-name="germandbls" unicode="&#xdf;" horiz-adv-x="387" 
d="M118 -95q0 -20 -20 -20h-28q-20 0 -20 20v577q0 64 10 106.5t28 68t42.5 36.5t53.5 11q26 0 50.5 -9.5t43 -29t28.5 -49.5t9 -71q-1 -31 -12.5 -58t-24.5 -50.5t-24 -45t-11 -41.5q0 -19 8.5 -33.5t21 -28t27.5 -27t27.5 -29.5t21 -36t8.5 -46q0 -41 -29 -83t-92 -70
q-13 -6 -17.5 -1.5t-7.5 12.5l-10 26q-3 8 -1.5 15t15.5 13q35 16 56.5 36.5t22.5 51.5q1 26 -17.5 45.5t-40.5 40t-40.5 47t-18.5 67.5q0 32 10.5 55t24 43.5t25 42.5t13.5 53q0 7 -1 22.5t-7 32t-19 29t-36 12.5q-25 0 -39 -18.5t-20.5 -50.5t-8 -75.5t-1.5 -92.5v-498v0z
" />
    <glyph glyph-name="agrave" unicode="&#xe0;" horiz-adv-x="360" 
d="M254 32q-17 -17 -40.5 -26.5t-47.5 -9.5q-54 0 -89 33t-35 100v31q0 37 13.5 60.5t33.5 38t44.5 23t46.5 17.5t38.5 21t21.5 33q8 35 -9 61t-51 26q-23 0 -43 -18.5t-20 -56.5q0 -14 -4 -17t-14 -3h-28q-11 0 -15 4.5t-5 15.5q-2 27 7 52t26 44.5t41.5 31t54.5 11.5
q21 0 43.5 -8t42 -24.5t32 -43.5t12.5 -64v-285q0 -20 3 -34t5 -25q4 -20 -20 -20h-22q-11 0 -15 5.5t-7 26.5zM184 60q25 2 41.5 17.5t16.5 59.5v128q-26 -11 -50 -19t-42 -19.5t-29 -29.5t-11 -49v-11q0 -39 18 -59.5t56 -17.5zM180 549q-8 0 -10.5 3t-6.5 14l-30 85
q-10 27 13 27h38q11 0 16 -4t5 -17v-98q0 -10 -10 -10h-15z" />
    <glyph glyph-name="aacute" unicode="&#xe1;" horiz-adv-x="360" 
d="M254 32q-17 -17 -40.5 -26.5t-47.5 -9.5q-54 0 -89 33t-35 100v31q0 37 13.5 60.5t33.5 38t44.5 23t46.5 17.5t38.5 21t21.5 33q8 35 -9 61t-51 26q-23 0 -43 -18.5t-20 -56.5q0 -14 -4 -17t-14 -3h-28q-11 0 -15 4.5t-5 15.5q-2 27 7 52t26 44.5t41.5 31t54.5 11.5
q21 0 43.5 -8t42 -24.5t32 -43.5t12.5 -64v-285q0 -20 3 -34t5 -25q4 -20 -20 -20h-22q-11 0 -15 5.5t-7 26.5zM184 60q25 2 41.5 17.5t16.5 59.5v128q-26 -11 -50 -19t-42 -19.5t-29 -29.5t-11 -49v-11q0 -39 18 -59.5t56 -17.5zM172 549q-10 0 -10 10v98q0 13 5 17t16 4
h38q23 0 13 -27l-30 -85q-4 -11 -6.5 -14t-10.5 -3h-15z" />
    <glyph glyph-name="acircumflex" unicode="&#xe2;" horiz-adv-x="360" 
d="M254 32q-17 -17 -40.5 -26.5t-47.5 -9.5q-54 0 -89 33t-35 100v31q0 37 13.5 60.5t33.5 38t44.5 23t46.5 17.5t38.5 21t21.5 33q8 35 -9 61t-51 26q-23 0 -43 -18.5t-20 -56.5q0 -14 -4 -17t-14 -3h-28q-11 0 -15 4.5t-5 15.5q-2 27 7 52t26 44.5t41.5 31t54.5 11.5
q21 0 43.5 -8t42 -24.5t32 -43.5t12.5 -64v-285q0 -20 3 -34t5 -25q4 -20 -20 -20h-22q-11 0 -15 5.5t-7 26.5zM184 60q25 2 41.5 17.5t16.5 59.5v128q-26 -11 -50 -19t-42 -19.5t-29 -29.5t-11 -49v-11q0 -39 18 -59.5t56 -17.5zM191 627q-4 10 -8 0l-24 -67q-2 -5 -4.5 -8
t-8.5 -3h-43q-10 0 -11.5 6t2.5 12l64 104q4 5 7 6t8 1h28q5 0 8 -1t7 -6l64 -104q4 -6 2.5 -12t-11.5 -6h-43q-6 0 -8.5 3t-4.5 8z" />
    <glyph glyph-name="atilde" unicode="&#xe3;" horiz-adv-x="360" 
d="M254 32q-17 -17 -40.5 -26.5t-47.5 -9.5q-54 0 -89 33t-35 100v31q0 37 13.5 60.5t33.5 38t44.5 23t46.5 17.5t38.5 21t21.5 33q8 35 -9 61t-51 26q-23 0 -43 -18.5t-20 -56.5q0 -14 -4 -17t-14 -3h-28q-11 0 -15 4.5t-5 15.5q-2 27 7 52t26 44.5t41.5 31t54.5 11.5
q21 0 43.5 -8t42 -24.5t32 -43.5t12.5 -64v-285q0 -20 3 -34t5 -25q4 -20 -20 -20h-22q-11 0 -15 5.5t-7 26.5zM184 60q25 2 41.5 17.5t16.5 59.5v128q-26 -11 -50 -19t-42 -19.5t-29 -29.5t-11 -49v-11q0 -39 18 -59.5t56 -17.5zM218 545q-11 1 -22.5 6.5t-22 11.5
t-20 10.5t-16.5 4.5q-12 0 -17.5 -7.5t-8.5 -18.5q-1 -2 -2 -4.5t-6 -2.5h-40q-7 0 -6 6q3 16 9 30.5t16.5 25t25.5 16t35 4.5q11 -1 22.5 -6t22 -11t19.5 -11t17 -5q12 0 17.5 7.5t8.5 18.5q1 2 2 4.5t6 2.5h40q7 0 6 -6q-3 -16 -9 -30.5t-16.5 -25t-25.5 -16.5t-35 -4z
" />
    <glyph glyph-name="adieresis" unicode="&#xe4;" horiz-adv-x="360" 
d="M254 32q-17 -17 -40.5 -26.5t-47.5 -9.5q-54 0 -89 33t-35 100v31q0 37 13.5 60.5t33.5 38t44.5 23t46.5 17.5t38.5 21t21.5 33q8 35 -9 61t-51 26q-23 0 -43 -18.5t-20 -56.5q0 -14 -4 -17t-14 -3h-28q-11 0 -15 4.5t-5 15.5q-2 27 7 52t26 44.5t41.5 31t54.5 11.5
q21 0 43.5 -8t42 -24.5t32 -43.5t12.5 -64v-285q0 -20 3 -34t5 -25q4 -20 -20 -20h-22q-11 0 -15 5.5t-7 26.5zM184 60q25 2 41.5 17.5t16.5 59.5v128q-26 -11 -50 -19t-42 -19.5t-29 -29.5t-11 -49v-11q0 -39 18 -59.5t56 -17.5zM83 584q0 16 11 27.5t28 11.5
q16 0 27.5 -11.5t11.5 -27.5q0 -17 -11.5 -28t-27.5 -11q-17 0 -28 11t-11 28zM194 584q0 16 11.5 27.5t27.5 11.5q17 0 28 -11.5t11 -27.5q0 -17 -11 -28t-28 -11q-16 0 -27.5 11t-11.5 28z" />
    <glyph glyph-name="aring" unicode="&#xe5;" horiz-adv-x="360" 
d="M254 32q-17 -17 -40.5 -26.5t-47.5 -9.5q-54 0 -89 33t-35 100v31q0 37 13.5 60.5t33.5 38t44.5 23t46.5 17.5t38.5 21t21.5 33q8 35 -9 61t-51 26q-23 0 -43 -18.5t-20 -56.5q0 -14 -4 -17t-14 -3h-28q-11 0 -15 4.5t-5 15.5q-2 27 7 52t26 44.5t41.5 31t54.5 11.5
q21 0 43.5 -8t42 -24.5t32 -43.5t12.5 -64v-285q0 -20 3 -34t5 -25q4 -20 -20 -20h-22q-11 0 -15 5.5t-7 26.5zM184 60q25 2 41.5 17.5t16.5 59.5v128q-26 -11 -50 -19t-42 -19.5t-29 -29.5t-11 -49v-11q0 -39 18 -59.5t56 -17.5zM181 545q-34 0 -58.5 24.5t-24.5 58.5
q0 35 24.5 59.5t58.5 24.5q35 0 59.5 -24.5t24.5 -59.5q0 -34 -24.5 -58.5t-59.5 -24.5zM142 628q0 -17 11.5 -28t27.5 -11q17 0 28 11t11 28q0 16 -11 27.5t-28 11.5q-16 0 -27.5 -11.5t-11.5 -27.5z" />
    <glyph glyph-name="ae" unicode="&#xe6;" horiz-adv-x="550" 
d="M376 -4q-32 0 -62 13.5t-45 45.5q-23 -32 -48.5 -45.5t-54.5 -13.5q-54 0 -89 33t-35 100v31q0 37 13.5 60.5t33.5 38t44.5 23t46.5 17.5t38.5 21t21.5 33q8 35 -9 61t-51 26q-23 0 -43 -18.5t-20 -56.5q0 -14 -4 -17t-14 -3h-28q-11 0 -15 4.5t-5 15.5q-2 27 7 52
t26 44.5t41.5 31t54.5 11.5q24 0 50.5 -11t46.5 -34q19 24 44.5 34.5t54.5 10.5q28 0 52 -9t41 -29.5t26.5 -54t9.5 -83.5v-62q0 -20 -20 -20h-155q-20 0 -20 -20v-73q0 -50 19 -71.5t47 -21.5q23 0 43 18.5t20 56.5q0 20 18 20h28q13 0 16.5 -6t3.5 -23q0 -26 -9.5 -49.5
t-26.5 -41.5t-41 -28.5t-52 -10.5zM184 60q25 2 41.5 17.5t16.5 59.5v128q-26 -11 -50 -19t-42 -19.5t-29 -29.5t-11 -49v-11q0 -39 18 -59.5t56 -17.5zM310 330q0 -15 2.5 -17.5t17.5 -2.5h89q15 0 17.5 2.5t2.5 17.5v17q0 50 -17.5 71.5t-45.5 21.5t-47 -21.5t-19 -71.5
v-17z" />
    <glyph glyph-name="ccedilla" unicode="&#xe7;" horiz-adv-x="355" 
d="M108 -112q-8 2 -10 5t0 9l31 102q-36 14 -60 53t-24 115v156q0 50 11 83.5t29.5 54t42.5 29.5t51 9q32 0 55.5 -11t39.5 -29t24.5 -41.5t10.5 -48.5q2 -17 -2.5 -23t-17.5 -6h-27q-10 0 -13.5 3t-4.5 17q-3 38 -21 56.5t-44 18.5q-28 0 -47 -21.5t-19 -71.5v-194
q0 -50 19 -71.5t47 -21.5q26 0 44 18.5t21 56.5q1 14 4.5 17t13.5 3h27q13 0 17.5 -6t2.5 -23q-2 -25 -10.5 -48t-23.5 -41t-37 -29t-53 -12l-15 -50q25 9 46.5 4.5t36.5 -17.5t23.5 -32t8.5 -39q-1 -30 -14.5 -52.5t-34.5 -35t-46.5 -13.5t-49.5 11q-7 3 -3 12l12 36
q2 6 6 6t7 -1q13 -4 23 -4q17 0 28.5 12t11.5 29q0 15 -11.5 27t-28.5 12q-19 0 -32 -16q-3 -4 -5 -5.5t-8 0.5z" />
    <glyph glyph-name="egrave" unicode="&#xe8;" horiz-adv-x="358" 
d="M113 153q0 -50 19 -71.5t47 -21.5q26 0 44 18.5t21 56.5q1 14 4.5 17t13.5 3h27q13 0 17.5 -6t2.5 -23q-2 -25 -10.5 -48.5t-24.5 -41.5t-39.5 -29t-55.5 -11q-27 0 -51 9t-42.5 29.5t-29.5 54t-11 83.5v156q0 50 11 83.5t29.5 54t42.5 29.5t51 9t51 -9t42.5 -29.5
t29.5 -54t11 -83.5v-62q0 -20 -20 -20h-160q-15 0 -17.5 -2.5t-2.5 -16.5v-74zM179 440q-28 0 -47 -21.5t-19 -71.5v-17q0 -15 2.5 -17.5t17.5 -2.5h92q15 0 17.5 2.5t2.5 17.5v17q0 50 -19 71.5t-47 21.5zM170 549q-8 0 -10.5 3t-6.5 14l-30 85q-10 27 13 27h38q11 0 16 -4
t5 -17v-98q0 -10 -10 -10h-15z" />
    <glyph glyph-name="eacute" unicode="&#xe9;" horiz-adv-x="358" 
d="M113 153q0 -50 19 -71.5t47 -21.5q26 0 44 18.5t21 56.5q1 14 4.5 17t13.5 3h27q13 0 17.5 -6t2.5 -23q-2 -25 -10.5 -48.5t-24.5 -41.5t-39.5 -29t-55.5 -11q-27 0 -51 9t-42.5 29.5t-29.5 54t-11 83.5v156q0 50 11 83.5t29.5 54t42.5 29.5t51 9t51 -9t42.5 -29.5
t29.5 -54t11 -83.5v-62q0 -20 -20 -20h-160q-15 0 -17.5 -2.5t-2.5 -16.5v-74zM179 440q-28 0 -47 -21.5t-19 -71.5v-17q0 -15 2.5 -17.5t17.5 -2.5h92q15 0 17.5 2.5t2.5 17.5v17q0 50 -19 71.5t-47 21.5zM169 549q-10 0 -10 10v98q0 13 5 17t16 4h38q23 0 13 -27l-30 -85
q-4 -11 -6.5 -14t-10.5 -3h-15z" />
    <glyph glyph-name="ecircumflex" unicode="&#xea;" horiz-adv-x="358" 
d="M113 153q0 -50 19 -71.5t47 -21.5q26 0 44 18.5t21 56.5q1 14 4.5 17t13.5 3h27q13 0 17.5 -6t2.5 -23q-2 -25 -10.5 -48.5t-24.5 -41.5t-39.5 -29t-55.5 -11q-27 0 -51 9t-42.5 29.5t-29.5 54t-11 83.5v156q0 50 11 83.5t29.5 54t42.5 29.5t51 9t51 -9t42.5 -29.5
t29.5 -54t11 -83.5v-62q0 -20 -20 -20h-160q-15 0 -17.5 -2.5t-2.5 -16.5v-74zM179 440q-28 0 -47 -21.5t-19 -71.5v-17q0 -15 2.5 -17.5t17.5 -2.5h92q15 0 17.5 2.5t2.5 17.5v17q0 50 -19 71.5t-47 21.5zM185 627q-4 10 -8 0l-24 -67q-2 -5 -4.5 -8t-8.5 -3h-43
q-10 0 -11.5 6t2.5 12l64 104q4 5 7 6t8 1h28q5 0 8 -1t7 -6l64 -104q4 -6 2.5 -12t-11.5 -6h-43q-6 0 -8.5 3t-4.5 8z" />
    <glyph glyph-name="edieresis" unicode="&#xeb;" horiz-adv-x="358" 
d="M113 153q0 -50 19 -71.5t47 -21.5q26 0 44 18.5t21 56.5q1 14 4.5 17t13.5 3h27q13 0 17.5 -6t2.5 -23q-2 -25 -10.5 -48.5t-24.5 -41.5t-39.5 -29t-55.5 -11q-27 0 -51 9t-42.5 29.5t-29.5 54t-11 83.5v156q0 50 11 83.5t29.5 54t42.5 29.5t51 9t51 -9t42.5 -29.5
t29.5 -54t11 -83.5v-62q0 -20 -20 -20h-160q-15 0 -17.5 -2.5t-2.5 -16.5v-74zM179 440q-28 0 -47 -21.5t-19 -71.5v-17q0 -15 2.5 -17.5t17.5 -2.5h92q15 0 17.5 2.5t2.5 17.5v17q0 50 -19 71.5t-47 21.5zM87 584q0 16 11 27.5t28 11.5q16 0 27.5 -11.5t11.5 -27.5
q0 -17 -11.5 -28t-27.5 -11q-17 0 -28 11t-11 28zM198 584q0 16 11.5 27.5t27.5 11.5q17 0 28 -11.5t11 -27.5q0 -17 -11 -28t-28 -11q-16 0 -27.5 11t-11.5 28z" />
    <glyph glyph-name="igrave" unicode="&#xec;" 
d="M123 20q0 -20 -20 -20h-28q-20 0 -20 20v460q0 20 20 20h28q20 0 20 -20v-460zM80 549q-8 0 -10.5 3t-6.5 14l-30 85q-10 27 13 27h38q11 0 16 -4t5 -17v-98q0 -10 -10 -10h-15z" />
    <glyph glyph-name="iacute" unicode="&#xed;" 
d="M123 20q0 -20 -20 -20h-28q-20 0 -20 20v460q0 20 20 20h28q20 0 20 -20v-460zM82 549q-10 0 -10 10v98q0 13 5 17t16 4h38q23 0 13 -27l-30 -85q-4 -11 -6.5 -14t-10.5 -3h-15z" />
    <glyph glyph-name="icircumflex" unicode="&#xee;" 
d="M123 20q0 -20 -20 -20h-28q-20 0 -20 20v460q0 20 20 20h28q20 0 20 -20v-460zM93 627q-4 10 -8 0l-24 -67q-2 -5 -4.5 -8t-8.5 -3h-43q-10 0 -11.5 6t2.5 12l64 104q4 5 7 6t8 1h28q5 0 8 -1t7 -6l64 -104q4 -6 2.5 -12t-11.5 -6h-43q-6 0 -8.5 3t-4.5 8z" />
    <glyph glyph-name="idieresis" unicode="&#xef;" 
d="M123 20q0 -20 -20 -20h-28q-20 0 -20 20v460q0 20 20 20h28q20 0 20 -20v-460zM-5 584q0 16 11 27.5t28 11.5q16 0 27.5 -11.5t11.5 -27.5q0 -17 -11.5 -28t-27.5 -11q-17 0 -28 11t-11 28zM106 584q0 16 11.5 27.5t27.5 11.5q17 0 28 -11.5t11 -27.5q0 -17 -11 -28
t-28 -11q-16 0 -27.5 11t-11.5 28z" />
    <glyph glyph-name="eth" unicode="&#xf0;" horiz-adv-x="366" 
d="M106 698q2 5 3.5 5t4.5 -1q11 -3 32 -12.5t50 -30.5q7 -4 12 1l30 30q8 8 14.5 8t14.5 -8l15 -15q8 -8 8 -14.5t-8 -14.5l-30 -30q-6 -6 -3 -10q29 -38 50.5 -97t21.5 -146v-191q0 -50 -10 -83.5t-28.5 -54t-44 -29.5t-55.5 -9t-55.5 9t-44 29.5t-28.5 54t-10 83.5v97
q0 50 10 83.5t27.5 54t40.5 29.5t50 9q21 0 42.5 -10t37.5 -32q0 10 -1 27.5t-5.5 39.5t-12.5 46.5t-21 48.5q-3 5 -5 5t-6 -4l-25 -25q-15 -15 -28 0l-16 16q-15 13 0 28l29 29q7 7 0 14q-26 23 -60 37q-2 1 -4 1.5t0 5.5zM183 60q28 0 49 21.5t21 71.5v135q0 50 -22 71.5
t-48 21.5q-28 0 -49 -21.5t-21 -71.5v-135q0 -50 21 -71.5t49 -21.5z" />
    <glyph glyph-name="ntilde" unicode="&#xf1;" horiz-adv-x="381" 
d="M263 347q0 50 -21 71.5t-49 21.5q-26 0 -48 -21.5t-22 -72.5v-326q0 -20 -20 -20h-28q-20 0 -20 20v460q0 20 20 20h28q20 0 20 -20v-19q17 23 38 32.5t42 10.5q27 1 50 -8t40.5 -29.5t27.5 -54.5t10 -84v-308q0 -20 -20 -20h-28q-20 0 -20 20v327zM232 545q-11 1 -22 6
t-21 10.5t-19 10t-16 4.5q-12 0 -17 -7t-8 -18l-2 -4t-6 -2h-39q-7 0 -6 6q6 30 25 52.5t59 19.5q11 0 22 -5t21 -11t19 -10.5t16 -4.5q11 0 16.5 7t8.5 18l2 4t6 2h38q7 0 6 -5q-3 -15 -9 -29t-16 -24.5t-24.5 -16t-33.5 -3.5z" />
    <glyph glyph-name="ograve" unicode="&#xf2;" horiz-adv-x="358" 
d="M179 -4q-27 0 -51 9t-42.5 29.5t-29.5 54t-11 83.5v156q0 50 11 83.5t29.5 54t42.5 29.5t51 9t51 -9t42.5 -29.5t29.5 -54t11 -83.5v-156q0 -50 -11 -83.5t-29.5 -54t-42.5 -29.5t-51 -9zM245 347q0 50 -19 71.5t-47 21.5t-47 -21.5t-19 -71.5v-194q0 -50 19 -71.5
t47 -21.5t47 21.5t19 71.5v194zM173 549q-8 0 -10.5 3t-6.5 14l-30 85q-10 27 13 27h38q11 0 16 -4t5 -17v-98q0 -10 -10 -10h-15z" />
    <glyph glyph-name="oacute" unicode="&#xf3;" horiz-adv-x="358" 
d="M179 -4q-27 0 -51 9t-42.5 29.5t-29.5 54t-11 83.5v156q0 50 11 83.5t29.5 54t42.5 29.5t51 9t51 -9t42.5 -29.5t29.5 -54t11 -83.5v-156q0 -50 -11 -83.5t-29.5 -54t-42.5 -29.5t-51 -9zM245 347q0 50 -19 71.5t-47 21.5t-47 -21.5t-19 -71.5v-194q0 -50 19 -71.5
t47 -21.5t47 21.5t19 71.5v194zM175 549q-10 0 -10 10v98q0 13 5 17t16 4h38q23 0 13 -27l-30 -85q-4 -11 -6.5 -14t-10.5 -3h-15z" />
    <glyph glyph-name="ocircumflex" unicode="&#xf4;" horiz-adv-x="358" 
d="M179 -4q-27 0 -51 9t-42.5 29.5t-29.5 54t-11 83.5v156q0 50 11 83.5t29.5 54t42.5 29.5t51 9t51 -9t42.5 -29.5t29.5 -54t11 -83.5v-156q0 -50 -11 -83.5t-29.5 -54t-42.5 -29.5t-51 -9zM245 347q0 50 -19 71.5t-47 21.5t-47 -21.5t-19 -71.5v-194q0 -50 19 -71.5
t47 -21.5t47 21.5t19 71.5v194zM185 627q-4 10 -8 0l-24 -67q-2 -5 -4.5 -8t-8.5 -3h-43q-10 0 -11.5 6t2.5 12l64 104q4 5 7 6t8 1h28q5 0 8 -1t7 -6l64 -104q4 -6 2.5 -12t-11.5 -6h-43q-6 0 -8.5 3t-4.5 8z" />
    <glyph glyph-name="otilde" unicode="&#xf5;" horiz-adv-x="358" 
d="M179 -4q-27 0 -51 9t-42.5 29.5t-29.5 54t-11 83.5v156q0 50 11 83.5t29.5 54t42.5 29.5t51 9t51 -9t42.5 -29.5t29.5 -54t11 -83.5v-156q0 -50 -11 -83.5t-29.5 -54t-42.5 -29.5t-51 -9zM245 347q0 50 -19 71.5t-47 21.5t-47 -21.5t-19 -71.5v-194q0 -50 19 -71.5
t47 -21.5t47 21.5t19 71.5v194zM217 545q-11 1 -22 6t-21 10.5t-19 10t-16 4.5q-12 0 -17 -7t-8 -18l-2 -4t-6 -2h-39q-7 0 -6 6q6 30 25 52.5t59 19.5q11 0 22 -5t21 -11t19 -10.5t16 -4.5q11 0 16.5 7t8.5 18l2 4t6 2h38q7 0 6 -5q-3 -15 -9 -29t-16 -24.5t-24.5 -16
t-33.5 -3.5z" />
    <glyph glyph-name="odieresis" unicode="&#xf6;" horiz-adv-x="358" 
d="M179 -4q-27 0 -51 9t-42.5 29.5t-29.5 54t-11 83.5v156q0 50 11 83.5t29.5 54t42.5 29.5t51 9t51 -9t42.5 -29.5t29.5 -54t11 -83.5v-156q0 -50 -11 -83.5t-29.5 -54t-42.5 -29.5t-51 -9zM245 347q0 50 -19 71.5t-47 21.5t-47 -21.5t-19 -71.5v-194q0 -50 19 -71.5
t47 -21.5t47 21.5t19 71.5v194zM85 584q0 16 11 27.5t28 11.5q16 0 27.5 -11.5t11.5 -27.5q0 -17 -11.5 -28t-27.5 -11q-17 0 -28 11t-11 28zM196 584q0 16 11.5 27.5t27.5 11.5q17 0 28 -11.5t11 -27.5q0 -17 -11 -28t-28 -11q-16 0 -27.5 11t-11.5 28z" />
    <glyph glyph-name="divide" unicode="&#xf7;" horiz-adv-x="350" 
d="M135 519q0 16 11.5 27.5t27.5 11.5q17 0 28 -11.5t11 -27.5q0 -17 -11 -28t-28 -11q-16 0 -27.5 11t-11.5 28zM135 217q0 16 11.5 27.5t27.5 11.5q17 0 28 -11.5t11 -27.5q0 -17 -11 -28t-28 -11q-16 0 -27.5 11t-11.5 28zM35 382q0 20 20 20h240q20 0 20 -20v-28
q0 -20 -20 -20h-240q-20 0 -20 20v28z" />
    <glyph glyph-name="oslash" unicode="&#xf8;" horiz-adv-x="358" 
d="M176 -4l-4 -32q-3 -22 -23 -22h-26q-21 0 -19 20l6 51q-29 17 -47 55t-18 104v156q0 50 11 83.5t29.5 54t42.5 29.5t51 9h4l4 32q3 22 23 22h26q21 0 19 -20l-7 -52q29 -18 47 -55.5t18 -102.5v-156q0 -50 -11 -83.5t-29.5 -54t-42.5 -29.5t-51 -9h-3zM245 347
q0 50 -19 71.5t-47 21.5t-47 -21.5t-19 -71.5v-194q0 -50 19 -71.5t47 -21.5t47 21.5t19 71.5v194z" />
    <glyph glyph-name="ugrave" unicode="&#xf9;" horiz-adv-x="381" 
d="M178 -4q-27 -1 -50 8t-40.5 29.5t-27.5 54.5t-10 84v308q0 20 20 20h28q20 0 20 -20v-327q0 -50 21 -71.5t49 -21.5q26 0 48 21.5t22 72.5v326q0 20 20 20h28q20 0 20 -20v-460q0 -20 -20 -20h-28q-20 0 -20 20v19q-17 -23 -38 -32.5t-42 -10.5zM189 549q-8 0 -10.5 3
t-6.5 14l-30 85q-10 27 13 27h38q11 0 16 -4t5 -17v-98q0 -10 -10 -10h-15z" />
    <glyph glyph-name="uacute" unicode="&#xfa;" horiz-adv-x="381" 
d="M178 -4q-27 -1 -50 8t-40.5 29.5t-27.5 54.5t-10 84v308q0 20 20 20h28q20 0 20 -20v-327q0 -50 21 -71.5t49 -21.5q26 0 48 21.5t22 72.5v326q0 20 20 20h28q20 0 20 -20v-460q0 -20 -20 -20h-28q-20 0 -20 20v19q-17 -23 -38 -32.5t-42 -10.5zM180 549q-10 0 -10 10v98
q0 13 5 17t16 4h38q23 0 13 -27l-30 -85q-4 -11 -6.5 -14t-10.5 -3h-15z" />
    <glyph glyph-name="ucircumflex" unicode="&#xfb;" horiz-adv-x="381" 
d="M178 -4q-27 -1 -50 8t-40.5 29.5t-27.5 54.5t-10 84v308q0 20 20 20h28q20 0 20 -20v-327q0 -50 21 -71.5t49 -21.5q26 0 48 21.5t22 72.5v326q0 20 20 20h28q20 0 20 -20v-460q0 -20 -20 -20h-28q-20 0 -20 20v19q-17 -23 -38 -32.5t-42 -10.5zM196 627q-4 10 -8 0
l-24 -67q-2 -5 -4.5 -8t-8.5 -3h-43q-10 0 -11.5 6t2.5 12l64 104q4 5 7 6t8 1h28q5 0 8 -1t7 -6l64 -104q4 -6 2.5 -12t-11.5 -6h-43q-6 0 -8.5 3t-4.5 8z" />
    <glyph glyph-name="udieresis" unicode="&#xfc;" horiz-adv-x="381" 
d="M178 -4q-27 -1 -50 8t-40.5 29.5t-27.5 54.5t-10 84v308q0 20 20 20h28q20 0 20 -20v-327q0 -50 21 -71.5t49 -21.5q26 0 48 21.5t22 72.5v326q0 20 20 20h28q20 0 20 -20v-460q0 -20 -20 -20h-28q-20 0 -20 20v19q-17 -23 -38 -32.5t-42 -10.5zM88 584q0 16 11 27.5
t28 11.5q16 0 27.5 -11.5t11.5 -27.5q0 -17 -11.5 -28t-27.5 -11q-17 0 -28 11t-11 28zM199 584q0 16 11.5 27.5t27.5 11.5q17 0 28 -11.5t11 -27.5q0 -17 -11 -28t-28 -11q-16 0 -27.5 11t-11.5 28z" />
    <glyph glyph-name="yacute" unicode="&#xfd;" horiz-adv-x="328" 
d="M24 483q-2 11 1 14t16 3h28q10 0 15 -2t7 -13l69 -354q1 -4 4 -4t4 4l69 354q2 11 7 13t15 2h28q13 0 16 -3t1 -14l-119 -555q-12 -57 -33.5 -81.5t-62.5 -26.5q-11 0 -15.5 4t-4.5 16v24q0 11 4.5 15t15.5 5q19 1 30.5 23.5t11.5 52.5q0 10 -0.5 18.5t-4 25.5t-10 48
t-18 86t-30 138.5t-44.5 206.5zM151 549q-10 0 -10 10v98q0 13 5 17t16 4h38q23 0 13 -27l-30 -85q-4 -11 -6.5 -14t-10.5 -3h-15z" />
    <glyph glyph-name="thorn" unicode="&#xfe;" horiz-adv-x="376" 
d="M203 504q27 1 50 -8t40.5 -29.5t27.5 -54.5t10 -84v-156q0 -50 -10 -84t-27.5 -54.5t-40.5 -29.5t-50 -8q-21 1 -42 10.5t-38 32.5v-199q0 -20 -20 -20h-28q-20 0 -20 20v840q0 12 4.5 16t15.5 4h28q11 0 15.5 -4t4.5 -16v-218q17 23 38 32t42 10zM123 154
q0 -51 22 -72.5t48 -21.5q28 0 49 21.5t21 71.5v194q0 50 -21 71.5t-49 21.5q-26 0 -48 -21.5t-22 -71.5v-193z" />
    <glyph glyph-name="ydieresis" unicode="&#xff;" horiz-adv-x="328" 
d="M24 483q-2 11 1 14t16 3h28q10 0 15 -2t7 -13l69 -354q1 -4 4 -4t4 4l69 354q2 11 7 13t15 2h28q13 0 16 -3t1 -14l-119 -555q-12 -57 -33.5 -81.5t-62.5 -26.5q-11 0 -15.5 4t-4.5 16v24q0 11 4.5 15t15.5 5q19 1 30.5 23.5t11.5 52.5q0 10 -0.5 18.5t-4 25.5t-10 48
t-18 86t-30 138.5t-44.5 206.5zM70 584q0 16 11 27.5t28 11.5q16 0 27.5 -11.5t11.5 -27.5q0 -17 -11.5 -28t-27.5 -11q-17 0 -28 11t-11 28zM181 584q0 16 11.5 27.5t27.5 11.5q17 0 28 -11.5t11 -27.5q0 -17 -11 -28t-28 -11q-16 0 -27.5 11t-11.5 28z" />
    <glyph glyph-name="dotlessi" unicode="&#x131;" 
d="M123 20q0 -20 -20 -20h-28q-20 0 -20 20v460q0 20 20 20h28q20 0 20 -20v-460z" />
    <glyph glyph-name="OE" unicode="&#x152;" horiz-adv-x="563" 
d="M297 0q-11 0 -15 3.5t-5 12.5q-18 -11 -38.5 -15.5t-43.5 -4.5q-31 0 -58.5 9.5t-47.5 29.5t-32 52.5t-12 78.5v368q0 46 12 78.5t32 52.5t47.5 29.5t58.5 9.5q46 0 82 -21q1 17 20 17h201q20 0 20 -20v-24q0 -20 -20 -20h-133q-15 0 -17.5 -2.5t-2.5 -17.5v-195
q0 -15 2.5 -17.5t17.5 -2.5h133q20 0 20 -20v-24q0 -20 -20 -20h-133q-15 0 -17.5 -2.5t-2.5 -17.5v-233q0 -15 2.5 -17.5t17.5 -2.5h133q20 0 20 -20v-24q0 -20 -20 -20h-201zM277 517q0 68 -20 95.5t-62 27.5t-62 -27.5t-20 -95.5v-334q0 -68 20 -95.5t62 -27.5
q39 0 59.5 25t22.5 85v347z" />
    <glyph glyph-name="oe" unicode="&#x153;" horiz-adv-x="558" 
d="M179 -4q-27 0 -51 9t-42.5 29.5t-29.5 54t-11 83.5v156q0 50 11 83.5t29.5 54t42.5 29.5t51 9q29 0 55 -10.5t45 -35.5q19 25 45 35.5t55 10.5q27 0 51 -9t42.5 -29.5t29.5 -54t11 -83.5v-62q0 -20 -20 -20h-160q-11 0 -15 -1t-5 -8v-84q0 -50 19 -71.5t47 -21.5
q33 0 48 23.5t17 51.5q1 14 4.5 17t13.5 3h29q13 0 17 -6t2 -23q-5 -38 -18 -63t-31 -40t-39 -21t-43 -6q-29 0 -55 10.5t-45 35.5q-19 -25 -45 -35.5t-55 -10.5zM245 347q0 50 -19 71.5t-47 21.5t-47 -21.5t-19 -71.5v-194q0 -50 19 -71.5t47 -21.5t47 21.5t19 71.5v194z
M379 440q-28 0 -47 -21.5t-19 -71.5v-17q0 -15 2.5 -17.5t17.5 -2.5h92q15 0 17.5 2.5t2.5 17.5v17q0 50 -19 71.5t-47 21.5z" />
    <glyph glyph-name="Scaron" unicode="&#x160;" horiz-adv-x="376" 
d="M26 145q-1 11 1 19t16 8h31q10 0 15 -4.5t5 -18.5q2 -34 26.5 -61.5t65.5 -27.5q25 0 44 10.5t31 26.5t16.5 36t2.5 40q-4 33 -22.5 62t-44 57t-55 55.5t-55 58t-43 65t-19.5 75.5q-2 33 8 62t29 50t46 33.5t60 12.5q25 0 49.5 -9.5t44 -27.5t32 -44.5t14.5 -59.5
q-1 -9 -5.5 -11.5t-15.5 -2.5h-22q-10 0 -14.5 2.5t-5.5 11.5q-3 33 -23.5 55t-53.5 22q-17 0 -32 -7t-26 -19.5t-16.5 -31t-2.5 -42.5q4 -31 21.5 -58t42.5 -54t53.5 -54t53.5 -57t43.5 -64.5t23.5 -75.5q4 -34 -6 -66.5t-31 -58t-52 -41t-70 -15.5q-32 0 -60.5 11.5
t-49.5 32t-34.5 47.5t-15.5 58zM215 853q2 5 4.5 8t8.5 3h43q10 0 11.5 -6t-2.5 -12l-64 -104q-4 -5 -7 -6t-8 -1h-28q-5 0 -8 1t-7 6l-64 104q-4 6 -2.5 12t11.5 6h43q6 0 8.5 -3t4.5 -8l24 -67q4 -10 8 0z" />
    <glyph glyph-name="scaron" unicode="&#x161;" horiz-adv-x="316" 
d="M275 390q0 -13 -4.5 -16.5t-15.5 -3.5h-23q-8 0 -12 2.5t-6 14.5q-2 25 -18.5 39t-36.5 14q-21 0 -37.5 -15.5t-16.5 -39.5q0 -23 14 -41.5t35 -36t45.5 -35.5t45 -39.5t33.5 -48t12 -61.5q-1 -28 -12 -51t-29 -40t-42 -26.5t-50 -9.5q-28 0 -52 10t-41 27.5t-27.5 40.5
t-11.5 50q0 14 4 17t14 3h28q19 0 20 -20q2 -26 20 -45t46 -19q29 0 48.5 19.5t19.5 49.5q0 24 -13.5 43.5t-34 37.5t-44.5 36t-44.5 39t-34 45.5t-13.5 56.5q0 25 9.5 46.5t25.5 37t37 24.5t44 9q22 0 42.5 -7.5t37 -22t26.5 -36t12 -48.5zM183 667q2 5 4.5 8t8.5 3h43
q10 0 11.5 -6t-2.5 -12l-64 -104q-4 -5 -7 -6t-8 -1h-28q-5 0 -8 1t-7 6l-64 104q-4 6 -2.5 12t11.5 6h43q6 0 8.5 -3t4.5 -8l24 -67q4 -10 8 0z" />
    <glyph glyph-name="Ydieresis" unicode="&#x178;" horiz-adv-x="371" 
d="M171 0q-20 0 -20 20v238l-124 425q-4 13 2.5 15t14.5 2h28q10 0 14.5 -2t7.5 -13l87 -312q1 -4 4 -4t4 4l88 312q3 11 7.5 13t14.5 2h28q8 0 14.5 -2t2.5 -15l-125 -425v-238q0 -20 -20 -20h-28zM91 770q0 16 11 27.5t28 11.5q16 0 27.5 -11.5t11.5 -27.5
q0 -17 -11.5 -28t-27.5 -11q-17 0 -28 11t-11 28zM202 770q0 16 11.5 27.5t27.5 11.5q17 0 28 -11.5t11 -27.5q0 -17 -11 -28t-28 -11q-16 0 -27.5 11t-11.5 28z" />
    <glyph glyph-name="Zcaron" unicode="&#x17d;" horiz-adv-x="344" 
d="M107 72q-3 -8 5 -8h177q20 0 20 -20v-24q0 -20 -20 -20h-234q-20 0 -20 20v31q0 8 0.5 11t3.5 11l198 555q3 8 -5 8h-177q-20 0 -20 20v24q0 20 20 20h234q20 0 20 -20v-31q0 -8 -0.5 -10.5t-3.5 -11.5zM207 853q2 5 4.5 8t8.5 3h43q10 0 11.5 -6t-2.5 -12l-64 -104
q-4 -5 -7 -6t-8 -1h-28q-5 0 -8 1t-7 6l-64 104q-4 6 -2.5 12t11.5 6h43q6 0 8.5 -3t4.5 -8l24 -67q4 -10 8 0z" />
    <glyph glyph-name="zcaron" unicode="&#x17e;" horiz-adv-x="308" 
d="M101 72q-4 -8 5 -8h152q20 0 20 -20v-24q0 -20 -20 -20h-208q-20 0 -20 20v43q0 8 0.5 11.5t3.5 10.5l173 342q4 9 -4 9h-153q-20 0 -20 20v24q0 20 20 20h208q12 0 16 -4.5t4 -15.5v-41q0 -8 -0.5 -12t-3.5 -11zM183 667q2 5 4.5 8t8.5 3h43q10 0 11.5 -6t-2.5 -12
l-64 -104q-4 -5 -7 -6t-8 -1h-28q-5 0 -8 1t-7 6l-64 104q-4 6 -2.5 12t11.5 6h43q6 0 8.5 -3t4.5 -8l24 -67q4 -10 8 0z" />
    <glyph glyph-name="uni0237" unicode="&#x237;" 
d="M19 -116q27 2 31.5 30t4.5 74v492q0 20 20 20h28q20 0 20 -20v-461q0 -41 -1.5 -77t-11.5 -63t-31 -43t-60 -16q-20 0 -20 20v24q0 11 4.5 15t15.5 5z" />
    <glyph glyph-name="circumflex" unicode="&#x2c6;" horiz-adv-x="233" 
d="M121 813q-4 10 -8 0l-24 -67q-2 -5 -4.5 -8t-8.5 -3h-43q-10 0 -11.5 6t2.5 12l64 104q4 5 7 6t8 1h28q5 0 8 -1t7 -6l64 -104q4 -6 2.5 -12t-11.5 -6h-43q-6 0 -8.5 3t-4.5 8z" />
    <glyph glyph-name="tilde" unicode="&#x2dc;" horiz-adv-x="279" 
d="M177 731q-11 1 -22.5 6.5t-22 11.5t-20 10.5t-16.5 4.5q-12 0 -17.5 -7.5t-8.5 -18.5q-1 -2 -2 -4.5t-6 -2.5h-40q-7 0 -6 6q3 16 9 30.5t16.5 25t25.5 16t35 4.5q11 -1 22.5 -6t22 -11t19.5 -11t17 -5q12 0 17.5 7.5t8.5 18.5q1 2 2 4.5t6 2.5h40q7 0 6 -6
q-3 -16 -9 -30.5t-16.5 -25t-25.5 -16.5t-35 -4z" />
    <glyph glyph-name="endash" unicode="&#x2013;" horiz-adv-x="499" 
d="M35 289q0 20 20 20h389q20 0 20 -20v-28q0 -20 -20 -20h-389q-20 0 -20 20v28v0z" />
    <glyph glyph-name="emdash" unicode="&#x2014;" horiz-adv-x="609" 
d="M35 289q0 20 20 20h499q20 0 20 -20v-28q0 -20 -20 -20h-499q-20 0 -20 20v28v0z" />
    <glyph glyph-name="quoteleft" unicode="&#x2018;" horiz-adv-x="130" 
d="M105 608q0 -15 -11 -27t-28 -12q-15 0 -26.5 10.5t-14 29.5t8 45t39.5 58q2 2 4 3t6 -1l10 -7q6 -5 2 -10q-17 -23 -17.5 -33.5t5.5 -17.5t14 -14.5t8 -23.5z" />
    <glyph glyph-name="quoteright" unicode="&#x2019;" horiz-adv-x="130" 
d="M25 661q0 15 11 27t28 12q15 0 26.5 -10.5t14 -29.5t-8 -45.5t-39.5 -57.5q-2 -2 -4 -3t-6 1l-10 7q-6 5 -2 10q16 23 16.5 33.5t-5.5 17.5t-13.5 14.5t-7.5 23.5z" />
    <glyph glyph-name="quotesinglbase" unicode="&#x201a;" horiz-adv-x="130" 
d="M25 39q0 15 11 27t28 12q15 0 26.5 -10.5t14 -29.5t-8 -45.5t-39.5 -57.5q-2 -2 -4 -3t-6 1l-10 7q-6 5 -2 10q16 23 16.5 33.5t-5.5 17.5t-13.5 14.5t-7.5 23.5z" />
    <glyph glyph-name="quotedblleft" unicode="&#x201c;" horiz-adv-x="232" 
d="M207 608q0 -15 -11 -27t-28 -12q-15 0 -26.5 10.5t-14 29.5t8 45t39.5 58q2 2 4 3t6 -1l10 -7q6 -5 2 -10q-17 -23 -17.5 -33.5t5.5 -17.5t14 -14.5t8 -23.5zM105 608q0 -15 -11 -27t-28 -12q-15 0 -26.5 10.5t-14 29.5t8 45t39.5 58q2 2 4 3t6 -1l10 -7q6 -5 2 -10
q-17 -23 -17.5 -33.5t5.5 -17.5t14 -14.5t8 -23.5z" />
    <glyph glyph-name="quotedblright" unicode="&#x201d;" horiz-adv-x="232" 
d="M25 661q0 15 11 27t28 12q15 0 26.5 -10.5t14 -29.5t-8 -45.5t-39.5 -57.5q-2 -2 -4 -3t-6 1l-10 7q-6 5 -2 10q16 23 16.5 33.5t-5.5 17.5t-13.5 14.5t-7.5 23.5zM127 661q0 15 11 27t28 12q15 0 26.5 -10.5t14 -29.5t-8 -45.5t-39.5 -57.5q-2 -2 -4 -3t-6 1l-10 7
q-6 5 -2 10q16 23 16.5 33.5t-5.5 17.5t-13.5 14.5t-7.5 23.5z" />
    <glyph glyph-name="quotedblbase" unicode="&#x201e;" horiz-adv-x="232" 
d="M25 39q0 15 11 27t28 12q15 0 26.5 -10.5t14 -29.5t-8 -45.5t-39.5 -57.5q-2 -2 -4 -3t-6 1l-10 7q-6 5 -2 10q16 23 16.5 33.5t-5.5 17.5t-13.5 14.5t-7.5 23.5zM127 39q0 15 11 27t28 12q15 0 26.5 -10.5t14 -29.5t-8 -45.5t-39.5 -57.5q-2 -2 -4 -3t-6 1l-10 7
q-6 5 -2 10q16 23 16.5 33.5t-5.5 17.5t-13.5 14.5t-7.5 23.5z" />
    <glyph glyph-name="dagger" unicode="&#x2020;" horiz-adv-x="338" 
d="M155 -292q-20 0 -20 20v729q0 10 -10 10h-70q-20 0 -20 20v22q0 20 20 20h70q10 0 10 10v142q0 20 20 20h28q20 0 20 -20v-142q0 -10 10 -10h70q20 0 20 -20v-22q0 -20 -20 -20h-70q-10 0 -10 -8v-731q0 -20 -20 -20h-28v0z" />
    <glyph glyph-name="bullet" unicode="&#x2022;" horiz-adv-x="245" 
d="M122 279q-18 0 -33.5 7t-27.5 19t-19 28t-7 34t7 33.5t19 27.5t27.5 19t33.5 7t34 -7t28 -19t19 -27.5t7 -33.5t-7 -34t-19 -28t-28 -19t-34 -7z" />
    <glyph glyph-name="ellipsis" unicode="&#x2026;" horiz-adv-x="384" 
d="M35 39q0 16 11.5 27.5t27.5 11.5q17 0 28 -11.5t11 -27.5q0 -17 -11 -28t-28 -11q-16 0 -27.5 11t-11.5 28zM163 39q0 16 11.5 27.5t27.5 11.5q17 0 28 -11.5t11 -27.5q0 -17 -11 -28t-28 -11q-16 0 -27.5 11t-11.5 28zM291 39q0 16 11.5 27.5t27.5 11.5q17 0 28 -11.5
t11 -27.5q0 -17 -11 -28t-28 -11q-16 0 -27.5 11t-11.5 28z" />
    <glyph glyph-name="perthousand" unicode="&#x2030;" horiz-adv-x="667" 
d="M118 535q-35 0 -59 24t-24 59q0 18 6.5 33t17.5 26.5t26.5 18t32.5 6.5q35 0 59.5 -24.5t24.5 -59.5q0 -17 -6.5 -32.5t-18 -26.5t-26.5 -17.5t-33 -6.5zM82 618q0 -15 10.5 -25.5t25.5 -10.5q16 0 26.5 10.5t10.5 25.5q0 16 -10.5 26.5t-26.5 10.5q-15 0 -25.5 -10.5
t-10.5 -26.5zM260 678q4 22 25 22h26q20 0 17 -20l-122 -658q-4 -22 -24 -22h-26q-21 0 -18 20zM345 -4q-18 0 -33 6.5t-26.5 17.5t-18 26.5t-6.5 32.5q0 35 24.5 59.5t59.5 24.5q17 0 32 -6.5t26.5 -18t18 -26.5t6.5 -33q0 -35 -24 -59t-59 -24zM381 79q0 16 -10.5 26.5
t-25.5 10.5q-16 0 -26.5 -10.5t-10.5 -26.5q0 -15 10.5 -25.5t26.5 -10.5q15 0 25.5 10.5t10.5 25.5zM549 -4q-18 0 -33 6.5t-26.5 17.5t-18 26.5t-6.5 32.5q0 35 24.5 59.5t59.5 24.5q17 0 32 -6.5t26.5 -18t18 -26.5t6.5 -33q0 -35 -24 -59t-59 -24zM585 79
q0 16 -10.5 26.5t-25.5 10.5q-16 0 -26.5 -10.5t-10.5 -26.5q0 -15 10.5 -25.5t26.5 -10.5q15 0 25.5 10.5t10.5 25.5z" />
    <glyph glyph-name="guilsinglleft" unicode="&#x2039;" horiz-adv-x="215" 
d="M39 239q-8 12 0 22l123 150q7 8 12.5 5t5.5 -10v-60q0 -7 -1 -10.5t-9 -12.5l-54 -67q-5 -6 0 -12l54 -67q8 -9 9 -12.5t1 -10.5v-60q0 -7 -5.5 -10t-12.5 5l-123 150v0z" />
    <glyph glyph-name="guilsinglright" unicode="&#x203a;" horiz-adv-x="215" 
d="M53 89q-7 -8 -12.5 -5t-5.5 10v60q0 7 1 10.5t9 12.5l54 67q4 6 0 12l-54 67q-8 9 -9 12.5t-1 10.5v60q0 7 5.5 10t12.5 -5l123 -150q8 -10 0 -22z" />
    <glyph glyph-name="Euro" unicode="&#x20ac;" horiz-adv-x="411" 
d="M345 187q21 0 20 -23q-1 -46 -13 -78t-32 -52t-47 -29t-58 -9t-58.5 9.5t-47.5 29.5t-32 52.5t-12 78.5v105q0 10 -10 10h-25q-20 0 -20 20v24q0 20 20 20h25q10 0 10 10v17q0 10 -10 10h-25q-20 0 -20 20v21q0 20 20 20h25q10 0 10 10v81q0 46 12 78.5t32 52.5
t47.5 29.5t58.5 9.5t58 -9t47 -29t32 -52t13 -78q1 -23 -20 -23h-28q-19 0 -20 16q-2 61 -22.5 86t-59.5 25q-42 0 -62 -27.5t-20 -95.5v-65q0 -9 10 -9h49q20 0 20 -20v-21q0 -20 -20 -20h-49q-10 0 -10 -10v-17q0 -10 10 -10h49q20 0 20 -20v-24q0 -20 -20 -20h-49
q-10 0 -10 -10v-88q0 -68 20 -95.5t62 -27.5q39 0 59.5 25t22.5 86q1 16 20 16h28z" />
    <glyph glyph-name="trademark" unicode="&#x2122;" horiz-adv-x="365" 
d="M35 692q0 8 8 8h106q8 0 8 -8v-10q0 -8 -8 -8h-31q-6 0 -7 -1t-1 -7v-243q0 -8 -8 -8h-11q-9 0 -9 8v243q0 6 -1 7t-7 1h-31q-8 0 -8 8v10zM253 415q-3 0 -5 0.5t-4 5.5l-34 145q-1 2 -2 1.5t-1 -1.5v-143q0 -8 -8 -8h-11q-8 0 -8 8v269q0 8 8 8h8q7 0 8 -5l49 -204
q0 -2 1.5 -2t1.5 2l50 204q1 5 8 5h8q8 0 8 -8v-269q0 -8 -8 -8h-11q-8 0 -8 8v143q0 1 -1 1.5t-2 -1.5l-35 -145q-2 -5 -4 -5.5t-5 -0.5h-3z" />
    </font>
</defs>
</svg>
